<?xml version="1.0" encoding="utf-8" standalone="no"?>
<!DOCTYPE svg PUBLIC "-//W3C//DTD SVG 1.1//EN"
  "http://www.w3.org/Graphics/SVG/1.1/DTD/svg11.dtd">
<!-- Created with matplotlib (http://matplotlib.org/) -->
<svg height="432pt" version="1.1" viewBox="0 0 576 432" width="576pt" xmlns="http://www.w3.org/2000/svg" xmlns:xlink="http://www.w3.org/1999/xlink">
 <defs>
  <style type="text/css">
*{stroke-linecap:butt;stroke-linejoin:round;}
  </style>
 </defs>
 <g id="figure_1">
  <g id="patch_1">
   <path d="
M0 432
L576 432
L576 0
L0 0
z
" style="fill:#ffffff;"/>
  </g>
  <g id="axes_1">
   <g id="patch_2">
    <path d="
M72 388.8
L429.12 388.8
L429.12 43.2
L72 43.2
z
" style="fill:#ffffff;"/>
   </g>
   <g id="PathCollection_1">
    <defs>
     <path d="
M230.72 -84.9007
L231.157 -85.0909
L234.327 -88.0424
L234.559 -88.5818
L234.327 -91.6759
L233.571 -92.0727
L230.72 -92.3192
L230.496 -92.0727
L228.574 -88.5818
L229.832 -85.0909
L230.72 -84.9007" id="C0_0_f839d625ef"/>
    </defs>
    <g clip-path="url(#pbb64507b19)">
     <use style="fill:#0000a8;" x="0.0" xlink:href="#C0_0_f839d625ef" y="432.0"/>
    </g>
   </g>
   <g id="PathCollection_2">
    <defs>
     <path d="
M227.113 -83.8212
L230.72 -83.2189
L234.327 -84.8169
L234.608 -85.0909
L236.101 -88.5818
L235.697 -92.0727
L234.327 -94.0825
L230.934 -95.5636
L230.72 -95.6528
L230.591 -95.5636
L227.405 -92.0727
L227.113 -91.6464
L225.822 -88.5818
L225.594 -85.0909
L227.113 -83.8212
M230.72 -84.9007
L229.832 -85.0909
L228.574 -88.5818
L230.496 -92.0727
L230.72 -92.3192
L233.571 -92.0727
L234.327 -91.6759
L234.559 -88.5818
L234.327 -88.0424
L231.157 -85.0909
L230.72 -84.9007" id="C1_0_c72dfe9e70"/>
    </defs>
    <g clip-path="url(#pbb64507b19)">
     <use style="fill:#0000fa;" x="0.0" xlink:href="#C1_0_c72dfe9e70" y="432.0"/>
    </g>
   </g>
   <g id="PathCollection_3">
    <defs>
     <path d="
M230.72 -81.5801
L230.838 -81.6
L234.327 -83.2864
L236.176 -85.0909
L237.643 -88.5818
L237.093 -92.0727
L234.773 -95.5636
L234.327 -95.9316
L230.72 -97.605
L227.777 -95.5636
L227.113 -94.8414
L225.637 -92.0727
L223.926 -88.5818
L223.505 -86.1857
L223.344 -85.0909
L223.505 -84.8328
L227.113 -81.8791
L229.976 -81.6
L230.72 -81.5801
M227.113 -83.8212
L225.594 -85.0909
L225.822 -88.5818
L227.113 -91.6464
L227.405 -92.0727
L230.591 -95.5636
L230.72 -95.6528
L230.934 -95.5636
L234.327 -94.0825
L235.697 -92.0727
L236.101 -88.5818
L234.608 -85.0909
L234.327 -84.8169
L230.72 -83.2189
L227.113 -83.8212" id="C2_0_6b8934c974"/>
    </defs>
    <g clip-path="url(#pbb64507b19)">
     <use style="fill:#0034ff;" x="0.0" xlink:href="#C2_0_6b8934c974" y="432.0"/>
    </g>
   </g>
   <g id="PathCollection_4">
    <defs>
     <path d="
M227.113 -81.1224
L230.72 -81.0484
L234.005 -81.6
L234.327 -81.756
L237.745 -85.0909
L237.935 -85.5442
L238.721 -88.5818
L238.583 -92.0727
L237.935 -93.09
L236.381 -95.5636
L234.327 -97.259
L231.297 -99.0545
L230.72 -99.3625
L229.721 -99.0545
L227.113 -97.4198
L225.917 -95.5636
L224.007 -92.0727
L223.505 -91.0838
L222.485 -88.5818
L221.755 -85.0909
L223.505 -82.2842
L224.366 -81.6
L227.113 -81.1224
M230.72 -81.5801
L229.976 -81.6
L227.113 -81.8791
L223.505 -84.8328
L223.344 -85.0909
L223.505 -86.1857
L223.926 -88.5818
L225.637 -92.0727
L227.113 -94.8414
L227.777 -95.5636
L230.72 -97.605
L234.327 -95.9316
L234.773 -95.5636
L237.093 -92.0727
L237.643 -88.5818
L236.176 -85.0909
L234.327 -83.2864
L230.838 -81.6
L230.72 -81.5801" id="C3_0_8920961309"/>
    </defs>
    <g clip-path="url(#pbb64507b19)">
     <use style="fill:#0080ff;" x="0.0" xlink:href="#C3_0_8920961309" y="432.0"/>
    </g>
   </g>
   <g id="PathCollection_5">
    <defs>
     <path d="
M223.505 -81.0932
L227.113 -80.5647
L230.72 -80.5167
L234.327 -81.0129
L235.472 -81.6
L237.935 -83.9994
L238.63 -85.0909
L239.691 -88.5818
L240.215 -92.0727
L238.042 -95.5636
L237.935 -95.6255
L234.327 -98.5863
L233.537 -99.0545
L230.72 -100.558
L227.113 -99.7423
L226.56 -99.0545
L224.352 -95.5636
L223.505 -94.0327
L222.611 -92.0727
L221.173 -88.5818
L220.165 -85.0909
L221.946 -81.6
L223.505 -81.0932
M227.113 -81.1224
L224.366 -81.6
L223.505 -82.2842
L221.755 -85.0909
L222.485 -88.5818
L223.505 -91.0838
L224.007 -92.0727
L225.917 -95.5636
L227.113 -97.4198
L229.721 -99.0545
L230.72 -99.3625
L231.297 -99.0545
L234.327 -97.259
L236.381 -95.5636
L237.935 -93.09
L238.583 -92.0727
L238.721 -88.5818
L237.935 -85.5442
L237.745 -85.0909
L234.327 -81.756
L234.005 -81.6
L230.72 -81.0484
L227.113 -81.1224" id="C4_0_489bb43a07"/>
    </defs>
    <g clip-path="url(#pbb64507b19)">
     <use style="fill:#00c8ff;" x="0.0" xlink:href="#C4_0_489bb43a07" y="432.0"/>
    </g>
   </g>
   <g id="PathCollection_6">
    <defs>
     <path d="
M219.898 -81.5593
L223.505 -80.4004
L227.113 -80.007
L230.72 -79.985
L234.327 -80.3591
L236.746 -81.6
L237.935 -82.7576
L239.421 -85.0909
L240.661 -88.5818
L241.542 -91.4751
L241.679 -92.0727
L241.542 -94.2924
L241.202 -95.5636
L237.935 -97.4426
L235.849 -99.0545
L234.327 -99.8492
L230.72 -101.754
L227.113 -101.844
L224.87 -99.0545
L223.505 -96.8294
L222.866 -95.5636
L221.32 -92.0727
L219.898 -88.6682
L219.86 -88.5818
L218.747 -85.0909
L219.822 -81.6
L219.898 -81.5593
M223.505 -81.0932
L221.946 -81.6
L220.165 -85.0909
L221.173 -88.5818
L222.611 -92.0727
L223.505 -94.0327
L224.352 -95.5636
L226.56 -99.0545
L227.113 -99.7423
L230.72 -100.558
L233.537 -99.0545
L234.327 -98.5863
L237.935 -95.6255
L238.042 -95.5636
L240.215 -92.0727
L239.691 -88.5818
L238.63 -85.0909
L237.935 -83.9994
L235.472 -81.6
L234.327 -81.0129
L230.72 -80.5167
L227.113 -80.5647
L223.505 -81.0932" id="C5_0_fdde8ebee1"/>
    </defs>
    <g clip-path="url(#pbb64507b19)">
     <use style="fill:#23ffd4;" x="0.0" xlink:href="#C5_0_fdde8ebee1" y="432.0"/>
    </g>
   </g>
   <g id="PathCollection_7">
    <defs>
     <path d="
M219.898 -80.5381
L223.505 -79.7076
L227.113 -79.4493
L230.72 -79.4533
L234.327 -79.7054
L237.935 -81.5366
L237.992 -81.6
L240.212 -85.0909
L241.542 -88.4005
L241.62 -88.5818
L242.41 -92.0727
L242.276 -95.5636
L241.542 -97.7055
L238.538 -99.0545
L237.935 -99.2434
L234.327 -101.077
L231.516 -102.545
L230.72 -102.949
L227.113 -103.682
L225.698 -102.545
L223.505 -99.604
L223.186 -99.0545
L221.473 -95.5636
L220.029 -92.0727
L219.898 -91.76
L218.506 -88.5818
L217.364 -85.0909
L217.905 -81.6
L219.898 -80.5381
M219.898 -81.5593
L219.822 -81.6
L218.747 -85.0909
L219.86 -88.5818
L219.898 -88.6682
L221.32 -92.0727
L222.866 -95.5636
L223.505 -96.8294
L224.87 -99.0545
L227.113 -101.844
L230.72 -101.754
L234.327 -99.8492
L235.849 -99.0545
L237.935 -97.4426
L241.202 -95.5636
L241.542 -94.2924
L241.679 -92.0727
L241.542 -91.4751
L240.661 -88.5818
L239.421 -85.0909
L237.935 -82.7576
L236.746 -81.6
L234.327 -80.3591
L230.72 -79.985
L227.113 -80.007
L223.505 -80.4004
L219.898 -81.5593" id="C6_0_fe91bc94f5"/>
    </defs>
    <g clip-path="url(#pbb64507b19)">
     <use style="fill:#5dff9a;" x="0.0" xlink:href="#C6_0_fe91bc94f5" y="432.0"/>
    </g>
   </g>
   <g id="PathCollection_8">
    <defs>
     <path d="
M216.291 -81.2892
L219.898 -79.517
L223.505 -79.0148
L227.113 -78.8916
L230.72 -78.9216
L234.327 -79.0516
L237.935 -80.6011
L238.842 -81.6
L241.003 -85.0909
L241.542 -86.4315
L242.466 -88.5818
L243.141 -92.0727
L243.099 -95.5636
L242.108 -99.0545
L241.542 -100.014
L237.935 -100.916
L234.327 -102.305
L233.866 -102.545
L230.72 -104.14
L227.113 -105.389
L223.573 -102.545
L223.505 -102.454
L221.531 -99.0545
L220.081 -95.5636
L219.898 -95.1192
L218.4 -92.0727
L217.151 -88.5818
L216.291 -86
L215.9 -85.0909
L215.955 -81.6
L216.291 -81.2892
M219.898 -80.5381
L217.905 -81.6
L217.364 -85.0909
L218.506 -88.5818
L219.898 -91.76
L220.029 -92.0727
L221.473 -95.5636
L223.186 -99.0545
L223.505 -99.604
L225.698 -102.545
L227.113 -103.682
L230.72 -102.949
L231.516 -102.545
L234.327 -101.077
L237.935 -99.2434
L238.538 -99.0545
L241.542 -97.7055
L242.276 -95.5636
L242.41 -92.0727
L241.62 -88.5818
L241.542 -88.4005
L240.212 -85.0909
L237.992 -81.6
L237.935 -81.5366
L234.327 -79.7054
L230.72 -79.4533
L227.113 -79.4493
L223.505 -79.7076
L219.898 -80.5381" id="C7_0_d0a329e11b"/>
    </defs>
    <g clip-path="url(#pbb64507b19)">
     <use style="fill:#9aff5d;" x="0.0" xlink:href="#C7_0_d0a329e11b" y="432.0"/>
    </g>
   </g>
   <g id="PathCollection_9">
    <defs>
     <path d="
M216.291 -79.3221
L219.898 -78.4959
L223.505 -78.322
L227.113 -78.3338
L230.72 -78.3899
L234.327 -78.3978
L237.935 -79.6656
L239.693 -81.6
L241.542 -84.6442
L241.909 -85.0909
L243.311 -88.5818
L243.872 -92.0727
L243.922 -95.5636
L243.402 -99.0545
L241.542 -102.206
L238.441 -102.545
L237.935 -102.597
L234.327 -103.812
L230.72 -105.331
L228.958 -106.036
L227.113 -107.079
L224.19 -106.036
L223.505 -105.581
L221.268 -102.545
L219.898 -99.1309
L219.834 -99.0545
L217.747 -95.5636
L216.733 -92.0727
L216.291 -90.604
L215.279 -88.5818
L214.151 -85.0909
L213.827 -81.6
L216.291 -79.3221
M216.291 -81.2892
L215.955 -81.6
L215.9 -85.0909
L216.291 -86
L217.151 -88.5818
L218.4 -92.0727
L219.898 -95.1192
L220.081 -95.5636
L221.531 -99.0545
L223.505 -102.454
L223.573 -102.545
L227.113 -105.389
L230.72 -104.14
L233.866 -102.545
L234.327 -102.305
L237.935 -100.916
L241.542 -100.014
L242.108 -99.0545
L243.099 -95.5636
L243.141 -92.0727
L242.466 -88.5818
L241.542 -86.4315
L241.003 -85.0909
L238.842 -81.6
L237.935 -80.6011
L234.327 -79.0516
L230.72 -78.9216
L227.113 -78.8916
L223.505 -79.0148
L219.898 -79.517
L216.291 -81.2892" id="C8_0_532cb4d261"/>
    </defs>
    <g clip-path="url(#pbb64507b19)">
     <use style="fill:#d4ff23;" x="0.0" xlink:href="#C8_0_532cb4d261" y="432.0"/>
    </g>
   </g>
   <g id="PathCollection_10">
    <defs>
     <path d="
M216.291 -70.452
L219.898 -69.6668
L223.505 -69.3713
L227.113 -69.4414
L230.72 -70.0881
L232.527 -71.1273
L233.998 -74.6182
L234.327 -74.7799
L235.975 -78.1091
L237.935 -78.7302
L240.543 -81.6
L241.542 -83.2445
L243.058 -85.0909
L244.157 -88.5818
L244.603 -92.0727
L244.745 -95.5636
L244.695 -99.0545
L244.268 -102.545
L241.542 -104.969
L237.935 -104.652
L234.327 -105.387
L232.513 -106.036
L230.72 -107.134
L227.113 -108.759
L223.505 -109.237
L219.898 -106.817
L218.627 -106.036
L216.291 -103.88
L215.34 -102.545
L213.943 -99.0545
L213.167 -95.5636
L212.684 -92.6203
L212.599 -92.0727
L212.281 -88.5818
L211.829 -85.0909
L211.017 -81.6
L212.684 -78.2347
L212.839 -78.1091
L213.371 -74.6182
L214.879 -71.1273
L216.291 -70.452
M216.291 -79.3221
L213.827 -81.6
L214.151 -85.0909
L215.279 -88.5818
L216.291 -90.604
L216.733 -92.0727
L217.747 -95.5636
L219.834 -99.0545
L219.898 -99.1309
L221.268 -102.545
L223.505 -105.581
L224.19 -106.036
L227.113 -107.079
L228.958 -106.036
L230.72 -105.331
L234.327 -103.812
L237.935 -102.597
L238.441 -102.545
L241.542 -102.206
L243.402 -99.0545
L243.922 -95.5636
L243.872 -92.0727
L243.311 -88.5818
L241.909 -85.0909
L241.542 -84.6442
L239.693 -81.6
L237.935 -79.6656
L234.327 -78.3978
L230.72 -78.3899
L227.113 -78.3338
L223.505 -78.322
L219.898 -78.4959
L216.291 -79.3221" id="C9_0_e9d07648f0"/>
     <path d="
M252.364 -70.8065
L255.971 -68.4982
L259.578 -70.3389
L260.566 -71.1273
L263.185 -73.314
L264.5 -74.6182
L266.793 -77.8758
L266.985 -78.1091
L266.793 -78.5534
L263.185 -81.1171
L259.578 -80.6069
L257.569 -78.1091
L255.971 -77.1413
L254.244 -74.6182
L252.364 -71.2388
L252.301 -71.1273
L252.364 -70.8065" id="C9_1_d493bd3440"/>
     <path d="
M259.578 -87.2341
L263.185 -86.6282
L264.316 -88.5818
L265.077 -92.0727
L266.761 -95.5636
L266.793 -95.655
L267.946 -99.0545
L266.793 -100.378
L264.143 -102.545
L263.185 -102.723
L259.578 -103.194
L255.971 -103.43
L252.364 -103.17
L248.756 -102.661
L248.663 -102.545
L248.756 -102.34
L250.185 -99.0545
L252.114 -95.5636
L252.364 -95.2228
L255.201 -92.0727
L255.971 -90.9201
L258.701 -88.5818
L259.578 -87.2341" id="C9_2_ce2b8983e8"/>
    </defs>
    <g clip-path="url(#pbb64507b19)">
     <use style="fill:#ffdb00;" x="0.0" xlink:href="#C9_0_e9d07648f0" y="432.0"/>
    </g>
    <g clip-path="url(#pbb64507b19)">
     <use style="fill:#ffdb00;" x="0.0" xlink:href="#C9_1_d493bd3440" y="432.0"/>
    </g>
    <g clip-path="url(#pbb64507b19)">
     <use style="fill:#ffdb00;" x="0.0" xlink:href="#C9_2_ce2b8983e8" y="432.0"/>
    </g>
   </g>
   <g id="PathCollection_11">
    <defs>
     <path d="
M136.931 -46.6909
L140.538 -46.6909
L144.145 -46.6909
L147.753 -46.6909
L151.36 -46.6909
L154.967 -46.6909
L158.575 -46.6909
L162.182 -46.6909
L165.789 -46.6909
L169.396 -46.6909
L173.004 -46.6909
L175.147 -46.6909" id="Ca_0_1a575f12f9"/>
     <path d="
M214.147 -46.6909
L216.291 -46.6909
L219.898 -46.6909
L223.505 -46.6909
L227.113 -46.6909
L230.72 -46.6909
L234.327 -46.6909
L237.935 -46.6909
L241.542 -46.6909
L245.149 -46.6909
L248.756 -46.6909
L252.364 -46.6909
L255.971 -46.6909
L259.578 -46.6909
L263.185 -46.6909
L266.793 -46.6909
L270.4 -46.6909
L274.007 -46.6909
L277.615 -46.6909
L281.222 -46.6909
L284.829 -46.6909
L288.436 -46.6909
L292.044 -46.6909
L295.651 -46.6909
L299.258 -46.6909
L302.865 -46.6909
L306.473 -46.6909
L310.08 -46.6909
L313.687 -46.6909
L317.295 -46.6909
L320.902 -46.6909
L324.509 -46.6909
L328.116 -46.6909
L331.724 -46.6909
L335.331 -46.6909
L338.938 -46.6909
L342.545 -46.6909
L346.153 -46.6909
L349.76 -46.6909
L353.367 -46.6909
L356.975 -46.6909
L360.582 -46.6909
L360.582 -50.1818
L360.582 -53.6727
L364.189 -53.6727
L364.189 -57.1636
L364.189 -60.6545
L367.796 -60.6545
L367.796 -64.1455
L367.796 -67.6364
L371.404 -67.6364
L371.404 -71.1273
L371.404 -74.6182
L371.404 -78.1091
L375.011 -78.1091
L375.011 -81.6
L375.011 -85.0909
L378.618 -85.0909
L378.618 -88.5818
L378.618 -92.0727
L382.225 -92.0727
L382.225 -95.5636
L382.225 -99.0545
L382.225 -102.545
L385.833 -102.545
L385.833 -106.036
L385.833 -109.527
L385.833 -113.018
L385.833 -116.509
L385.833 -120
L385.833 -123.491
L385.833 -126.982
L385.833 -130.473
L385.833 -133.964
L389.44 -133.964
L389.44 -137.455
L389.44 -140.945
L389.44 -144.436
L389.44 -147.927
L389.44 -151.418
L389.44 -154.909
L389.44 -158.4
L389.44 -161.891
L389.44 -165.382
L389.44 -168.873
L389.44 -172.364
L389.44 -175.855
L389.44 -179.345
L389.44 -182.836
L389.44 -186.327
L389.44 -189.818
L389.44 -193.309
L389.44 -196.8
L389.44 -200.291
L389.44 -203.782
L393.047 -203.782
L393.047 -207.273
L393.047 -210.764
L393.047 -214.255
L393.047 -217.745
L393.047 -221.236
L393.047 -224.727
L393.047 -228.218
L393.047 -231.709
L393.047 -235.2
L393.047 -238.691
L393.047 -242.182
L393.047 -245.673
L393.047 -249.164
L393.047 -252.655
L393.047 -256.145
L393.047 -259.636
L393.047 -263.127
L393.047 -266.618
L393.047 -270.109
L393.047 -273.6
L393.047 -277.091
L393.047 -280.582
L389.44 -280.582
L389.44 -284.073
L389.44 -287.564
L389.44 -291.055
L389.44 -294.545
L389.44 -298.036
L385.833 -298.036
L385.833 -301.527
L385.833 -305.018
L385.833 -308.509
L385.833 -312
L382.225 -312
L382.225 -315.491
L382.225 -318.982
L382.225 -322.473
L382.225 -325.964
L378.618 -325.964
L378.618 -329.455
L375.011 -329.455
L371.404 -329.455
L371.404 -332.945
L367.796 -332.945
L364.189 -332.945
L364.189 -336.436
L360.582 -336.436
L360.582 -339.927
L356.975 -339.927
L353.367 -339.927
L349.76 -339.927
L349.76 -343.418
L346.153 -343.418
L342.545 -343.418
L338.938 -343.418
L335.331 -343.418
L335.331 -346.909
L331.724 -346.909
L328.116 -346.909
L324.509 -346.909
L324.509 -350.4
L320.902 -350.4
L317.295 -350.4
L313.687 -350.4
L310.08 -350.4
L306.473 -350.4
L302.865 -350.4
L302.865 -353.891
L299.258 -353.891
L295.651 -353.891
L292.044 -353.891
L288.436 -353.891
L284.829 -353.891
L281.222 -353.891
L277.615 -353.891
L274.007 -353.891
L270.4 -353.891
L266.793 -353.891
L263.185 -353.891
L259.578 -353.891
L255.971 -353.891
L252.364 -353.891
L248.756 -353.891
L245.149 -353.891
L241.542 -353.891
L237.935 -353.891
L234.327 -353.891
L230.72 -353.891
L227.113 -353.891
L223.505 -353.891
L219.898 -353.891
L216.291 -353.891
L212.684 -353.891
L209.076 -353.891
L205.469 -353.891
L201.862 -353.891
L198.255 -353.891
L194.647 -353.891
L191.04 -353.891
L187.433 -353.891
L183.825 -353.891
L180.218 -353.891
L176.611 -353.891
L173.004 -353.891
L169.396 -353.891
L165.789 -353.891
L162.182 -353.891
L158.575 -353.891
L154.967 -353.891
L151.36 -353.891
L147.753 -353.891
L144.145 -353.891
L140.538 -353.891
L136.931 -353.891
L133.324 -353.891
L129.716 -353.891
L126.109 -353.891
L122.502 -353.891
L118.895 -353.891
L115.287 -353.891
L111.68 -353.891
L108.073 -353.891
L104.465 -353.891
L104.465 -350.4
L100.858 -350.4
L97.2509 -350.4
L93.6436 -350.4
L90.0364 -350.4
L86.4291 -350.4
L86.4291 -346.909
L82.8218 -346.909
L79.2145 -346.909
L79.2145 -343.418
L79.2145 -339.927
L79.2145 -336.436
L79.2145 -332.945
L79.2145 -329.455
L79.2145 -325.964
L79.2145 -322.473
L75.6073 -322.473
L75.6073 -318.982
L75.6073 -315.491
L75.6073 -312
L75.6073 -308.509
L75.6073 -305.018
L75.6073 -301.527
L75.6073 -298.036
L75.6073 -294.545
L75.6073 -291.055
L75.6073 -287.564
L75.6073 -284.073
L75.6073 -280.582
L75.6073 -277.091
L75.6073 -273.6
L75.6073 -270.109
L75.6073 -266.618
L75.6073 -263.127
L75.6073 -259.636
L75.6073 -256.145
L75.6073 -252.655
L75.6073 -249.164
L75.6073 -245.673
L75.6073 -242.182
L75.6073 -238.691
L75.6073 -235.2
L75.6073 -231.709
L75.6073 -228.218
L75.6073 -224.727
L75.6073 -221.236
L75.6073 -217.745
L75.6073 -214.255
L75.6073 -210.764
L75.6073 -207.273
L75.6073 -203.782
L75.6073 -200.291
L75.6073 -196.8
L75.6073 -193.309
L75.6073 -189.818
L75.6073 -186.327
L75.6073 -182.836
L75.6073 -179.345
L75.6073 -175.855
L75.6073 -172.364
L75.6073 -168.873
L75.6073 -165.382
L75.6073 -161.891
L75.6073 -158.4
L75.6073 -154.909
L75.6073 -151.418
L75.6073 -147.927
L75.6073 -144.436
L75.6073 -140.945
L75.6073 -137.455
L75.6073 -133.964
L75.6073 -130.473
L75.6073 -126.982
L75.6073 -123.491
L75.6073 -120
L75.6073 -116.509
L75.6073 -113.018
L75.6073 -109.527
L75.6073 -106.036
L75.6073 -102.545
L75.6073 -99.0545
L75.6073 -95.5636
L75.6073 -92.0727
L75.6073 -88.5818
L75.6073 -85.0909
L75.6073 -81.6
L75.6073 -78.1091
L75.6073 -74.6182
L79.2145 -74.6182
L79.2145 -71.1273
L82.8218 -71.1273
L86.4291 -71.1273
L90.0364 -71.1273
L90.0364 -67.6364
L93.6436 -67.6364
L97.2509 -67.6364
L97.2509 -64.1455
L100.858 -64.1455
L104.465 -64.1455
L104.465 -60.6545
L108.073 -60.6545
L111.68 -60.6545
L111.68 -57.1636
L115.287 -57.1636
L118.895 -57.1636
L122.502 -57.1636
L122.502 -53.6727
L126.109 -53.6727
L129.716 -53.6727
L129.716 -50.1818
L133.324 -50.1818
L136.931 -50.1818
L136.931 -46.6909
L216.291 -70.452
L214.879 -71.1273
L213.371 -74.6182
L212.839 -78.1091
L212.684 -78.2347
L211.017 -81.6
L211.829 -85.0909
L212.281 -88.5818
L212.599 -92.0727
L212.684 -92.6203
L213.167 -95.5636
L213.943 -99.0545
L215.34 -102.545
L216.291 -103.88
L218.627 -106.036
L219.898 -106.817
L223.505 -109.237
L227.113 -108.759
L230.72 -107.134
L232.513 -106.036
L234.327 -105.387
L237.935 -104.652
L241.542 -104.969
L244.268 -102.545
L244.695 -99.0545
L244.745 -95.5636
L244.603 -92.0727
L244.157 -88.5818
L243.058 -85.0909
L241.542 -83.2445
L240.543 -81.6
L237.935 -78.7302
L235.975 -78.1091
L234.327 -74.7799
L233.998 -74.6182
L232.527 -71.1273
L230.72 -70.0881
L227.113 -69.4414
L223.505 -69.3713
L219.898 -69.6668
L216.291 -70.452
L245.149 -70.4275
L244.419 -71.1273
L241.542 -74.2006
L241.303 -74.6182
L238.346 -78.1091
L241.393 -81.6
L241.542 -81.8447
L244.208 -85.0909
L245.003 -88.5818
L245.149 -89.9996
L248.756 -91.5593
L250.802 -88.5818
L252.243 -85.0909
L252.364 -84.1598
L252.767 -81.6
L252.364 -79.8491
L252.145 -78.1091
L251.158 -74.6182
L248.756 -71.6183
L246.183 -71.1273
L245.149 -70.4275
L252.364 -70.8065
L252.301 -71.1273
L252.364 -71.2388
L254.244 -74.6182
L255.971 -77.1413
L257.569 -78.1091
L259.578 -80.6069
L263.185 -81.1171
L266.793 -78.5534
L266.985 -78.1091
L266.793 -77.8758
L264.5 -74.6182
L263.185 -73.314
L260.566 -71.1273
L259.578 -70.3389
L255.971 -68.4982
L252.364 -70.8065
L259.578 -87.2341
L258.701 -88.5818
L255.971 -90.9201
L255.201 -92.0727
L252.364 -95.2228
L252.114 -95.5636
L250.185 -99.0545
L248.756 -102.34
L248.663 -102.545
L248.756 -102.661
L252.364 -103.17
L255.971 -103.43
L259.578 -103.194
L263.185 -102.723
L264.143 -102.545
L266.793 -100.378
L267.946 -99.0545
L266.793 -95.655
L266.761 -95.5636
L265.077 -92.0727
L264.316 -88.5818
L263.185 -86.6282
L259.578 -87.2341
L292.044 -74.5298
L291.444 -74.6182
L288.436 -75.9082
L285.634 -78.1091
L288.436 -80.105
L292.044 -80.128
L295.651 -78.4964
L296.142 -78.1091
L295.651 -75.3768
L294.343 -74.6182
L292.044 -74.5298" id="Ca_1_744cbab036"/>
    </defs>
    <g clip-path="url(#pbb64507b19)">
     <use style="fill:#ff9400;" x="0.0" xlink:href="#Ca_0_1a575f12f9" y="432.0"/>
    </g>
    <g clip-path="url(#pbb64507b19)">
     <use style="fill:#ff9400;" x="0.0" xlink:href="#Ca_1_744cbab036" y="432.0"/>
    </g>
   </g>
   <g id="PathCollection_12">
    <defs>
     <path d="
M245.149 -70.4275
L246.183 -71.1273
L248.756 -71.6183
L251.158 -74.6182
L252.145 -78.1091
L252.364 -79.8491
L252.767 -81.6
L252.364 -84.1598
L252.243 -85.0909
L250.802 -88.5818
L248.756 -91.5593
L245.149 -89.9996
L245.003 -88.5818
L244.208 -85.0909
L241.542 -81.8447
L241.393 -81.6
L238.346 -78.1091
L241.303 -74.6182
L241.542 -74.2006
L244.419 -71.1273
L245.149 -70.4275
M248.756 -74.3052
L248.034 -74.6182
L245.149 -75.3089
L241.542 -75.9217
L239.569 -78.1091
L241.542 -80.4181
L243.47 -81.6
L245.149 -84.3867
L248.756 -82.2803
L248.938 -81.6
L249.253 -78.1091
L249.007 -74.6182
L248.756 -74.3052" id="Cb_0_954bbdd29a"/>
     <path d="
M292.044 -74.5298
L294.343 -74.6182
L295.651 -75.3768
L296.142 -78.1091
L295.651 -78.4964
L292.044 -80.128
L288.436 -80.105
L285.634 -78.1091
L288.436 -75.9082
L291.444 -74.6182
L292.044 -74.5298" id="Cb_1_fba7a465b9"/>
    </defs>
    <g clip-path="url(#pbb64507b19)">
     <use style="fill:#ff5200;" x="0.0" xlink:href="#Cb_0_954bbdd29a" y="432.0"/>
    </g>
    <g clip-path="url(#pbb64507b19)">
     <use style="fill:#ff5200;" x="0.0" xlink:href="#Cb_1_fba7a465b9" y="432.0"/>
    </g>
   </g>
   <g id="PathCollection_13">
    <defs>
     <path d="
M248.756 -74.3052
L249.007 -74.6182
L249.253 -78.1091
L248.938 -81.6
L248.756 -82.2803
L245.149 -84.3867
L243.47 -81.6
L241.542 -80.4181
L239.569 -78.1091
L241.542 -75.9217
L245.149 -75.3089
L248.034 -74.6182
L248.756 -74.3052
M241.542 -77.2786
L240.793 -78.1091
L241.542 -78.9858
L245.149 -80.7584
L247.014 -78.1091
L245.149 -76.793
L241.542 -77.2786" id="Cc_0_6ba7d4a6e4"/>
    </defs>
    <g clip-path="url(#pbb64507b19)">
     <use style="fill:#fa0f00;" x="0.0" xlink:href="#Cc_0_6ba7d4a6e4" y="432.0"/>
    </g>
   </g>
   <g id="PathCollection_14">
    <defs>
     <path d="
M241.542 -77.2786
L245.149 -76.793
L247.014 -78.1091
L245.149 -80.7584
L241.542 -78.9858
L240.793 -78.1091
L241.542 -77.2786" id="Cd_0_3948753153"/>
    </defs>
    <g clip-path="url(#pbb64507b19)">
     <use style="fill:#a80000;" x="0.0" xlink:href="#Cd_0_3948753153" y="432.0"/>
    </g>
   </g>
   <g id="matplotlib.axis_1">
    <g id="xtick_1">
     <g id="line2d_1">
      <defs>
       <path d="
M0 0
L0 -4" id="m93b0483c22" style="stroke:#000000;stroke-width:0.5;"/>
      </defs>
      <g>
       <use style="stroke:#000000;stroke-width:0.5;" x="136.598207877" xlink:href="#m93b0483c22" y="388.8"/>
      </g>
     </g>
     <g id="line2d_2">
      <defs>
       <path d="
M0 0
L0 4" id="m741efc42ff" style="stroke:#000000;stroke-width:0.5;"/>
      </defs>
      <g>
       <use style="stroke:#000000;stroke-width:0.5;" x="136.598207877" xlink:href="#m741efc42ff" y="43.2"/>
      </g>
     </g>
     <g id="text_1">
      <!-- 0.2 -->
      <defs>
       <path d="
M31.7812 66.4062
Q24.1719 66.4062 20.3281 58.9062
Q16.5 51.4219 16.5 36.375
Q16.5 21.3906 20.3281 13.8906
Q24.1719 6.39062 31.7812 6.39062
Q39.4531 6.39062 43.2812 13.8906
Q47.125 21.3906 47.125 36.375
Q47.125 51.4219 43.2812 58.9062
Q39.4531 66.4062 31.7812 66.4062
M31.7812 74.2188
Q44.0469 74.2188 50.5156 64.5156
Q56.9844 54.8281 56.9844 36.375
Q56.9844 17.9688 50.5156 8.26562
Q44.0469 -1.42188 31.7812 -1.42188
Q19.5312 -1.42188 13.0625 8.26562
Q6.59375 17.9688 6.59375 36.375
Q6.59375 54.8281 13.0625 64.5156
Q19.5312 74.2188 31.7812 74.2188" id="DejaVuSans-30"/>
       <path d="
M19.1875 8.29688
L53.6094 8.29688
L53.6094 0
L7.32812 0
L7.32812 8.29688
Q12.9375 14.1094 22.625 23.8906
Q32.3281 33.6875 34.8125 36.5312
Q39.5469 41.8438 41.4219 45.5312
Q43.3125 49.2188 43.3125 52.7812
Q43.3125 58.5938 39.2344 62.25
Q35.1562 65.9219 28.6094 65.9219
Q23.9688 65.9219 18.8125 64.3125
Q13.6719 62.7031 7.8125 59.4219
L7.8125 69.3906
Q13.7656 71.7812 18.9375 73
Q24.125 74.2188 28.4219 74.2188
Q39.75 74.2188 46.4844 68.5469
Q53.2188 62.8906 53.2188 53.4219
Q53.2188 48.9219 51.5312 44.8906
Q49.8594 40.875 45.4062 35.4062
Q44.1875 33.9844 37.6406 27.2188
Q31.1094 20.4531 19.1875 8.29688" id="DejaVuSans-32"/>
       <path d="
M10.6875 12.4062
L21 12.4062
L21 0
L10.6875 0
z
" id="DejaVuSans-2e"/>
      </defs>
      <g transform="translate(128.052895377 401.918125)scale(0.12 -0.12)">
       <use xlink:href="#DejaVuSans-30"/>
       <use x="63.623046875" xlink:href="#DejaVuSans-2e"/>
       <use x="95.41015625" xlink:href="#DejaVuSans-32"/>
      </g>
     </g>
    </g>
    <g id="xtick_2">
     <g id="line2d_3">
      <g>
       <use style="stroke:#000000;stroke-width:0.5;" x="201.795967595" xlink:href="#m93b0483c22" y="388.8"/>
      </g>
     </g>
     <g id="line2d_4">
      <g>
       <use style="stroke:#000000;stroke-width:0.5;" x="201.795967595" xlink:href="#m741efc42ff" y="43.2"/>
      </g>
     </g>
     <g id="text_2">
      <!-- 0.4 -->
      <defs>
       <path d="
M37.7969 64.3125
L12.8906 25.3906
L37.7969 25.3906
z

M35.2031 72.9062
L47.6094 72.9062
L47.6094 25.3906
L58.0156 25.3906
L58.0156 17.1875
L47.6094 17.1875
L47.6094 0
L37.7969 0
L37.7969 17.1875
L4.89062 17.1875
L4.89062 26.7031
z
" id="DejaVuSans-34"/>
      </defs>
      <g transform="translate(192.986280095 401.918125)scale(0.12 -0.12)">
       <use xlink:href="#DejaVuSans-30"/>
       <use x="63.623046875" xlink:href="#DejaVuSans-2e"/>
       <use x="95.41015625" xlink:href="#DejaVuSans-34"/>
      </g>
     </g>
    </g>
    <g id="xtick_3">
     <g id="line2d_5">
      <g>
       <use style="stroke:#000000;stroke-width:0.5;" x="266.993727313" xlink:href="#m93b0483c22" y="388.8"/>
      </g>
     </g>
     <g id="line2d_6">
      <g>
       <use style="stroke:#000000;stroke-width:0.5;" x="266.993727313" xlink:href="#m741efc42ff" y="43.2"/>
      </g>
     </g>
     <g id="text_3">
      <!-- 0.6 -->
      <defs>
       <path d="
M33.0156 40.375
Q26.375 40.375 22.4844 35.8281
Q18.6094 31.2969 18.6094 23.3906
Q18.6094 15.5312 22.4844 10.9531
Q26.375 6.39062 33.0156 6.39062
Q39.6562 6.39062 43.5312 10.9531
Q47.4062 15.5312 47.4062 23.3906
Q47.4062 31.2969 43.5312 35.8281
Q39.6562 40.375 33.0156 40.375
M52.5938 71.2969
L52.5938 62.3125
Q48.875 64.0625 45.0938 64.9844
Q41.3125 65.9219 37.5938 65.9219
Q27.8281 65.9219 22.6719 59.3281
Q17.5312 52.7344 16.7969 39.4062
Q19.6719 43.6562 24.0156 45.9219
Q28.375 48.1875 33.5938 48.1875
Q44.5781 48.1875 50.9531 41.5156
Q57.3281 34.8594 57.3281 23.3906
Q57.3281 12.1562 50.6875 5.35938
Q44.0469 -1.42188 33.0156 -1.42188
Q20.3594 -1.42188 13.6719 8.26562
Q6.98438 17.9688 6.98438 36.375
Q6.98438 53.6562 15.1875 63.9375
Q23.3906 74.2188 37.2031 74.2188
Q40.9219 74.2188 44.7031 73.4844
Q48.4844 72.75 52.5938 71.2969" id="DejaVuSans-36"/>
      </defs>
      <g transform="translate(258.225289813 401.918125)scale(0.12 -0.12)">
       <use xlink:href="#DejaVuSans-30"/>
       <use x="63.623046875" xlink:href="#DejaVuSans-2e"/>
       <use x="95.41015625" xlink:href="#DejaVuSans-36"/>
      </g>
     </g>
    </g>
    <g id="xtick_4">
     <g id="line2d_7">
      <g>
       <use style="stroke:#000000;stroke-width:0.5;" x="332.191487031" xlink:href="#m93b0483c22" y="388.8"/>
      </g>
     </g>
     <g id="line2d_8">
      <g>
       <use style="stroke:#000000;stroke-width:0.5;" x="332.191487031" xlink:href="#m741efc42ff" y="43.2"/>
      </g>
     </g>
     <g id="text_4">
      <!-- 0.8 -->
      <defs>
       <path d="
M31.7812 34.625
Q24.75 34.625 20.7188 30.8594
Q16.7031 27.0938 16.7031 20.5156
Q16.7031 13.9219 20.7188 10.1562
Q24.75 6.39062 31.7812 6.39062
Q38.8125 6.39062 42.8594 10.1719
Q46.9219 13.9688 46.9219 20.5156
Q46.9219 27.0938 42.8906 30.8594
Q38.875 34.625 31.7812 34.625
M21.9219 38.8125
Q15.5781 40.375 12.0312 44.7188
Q8.5 49.0781 8.5 55.3281
Q8.5 64.0625 14.7188 69.1406
Q20.9531 74.2188 31.7812 74.2188
Q42.6719 74.2188 48.875 69.1406
Q55.0781 64.0625 55.0781 55.3281
Q55.0781 49.0781 51.5312 44.7188
Q48 40.375 41.7031 38.8125
Q48.8281 37.1562 52.7969 32.3125
Q56.7812 27.4844 56.7812 20.5156
Q56.7812 9.90625 50.3125 4.23438
Q43.8438 -1.42188 31.7812 -1.42188
Q19.7344 -1.42188 13.25 4.23438
Q6.78125 9.90625 6.78125 20.5156
Q6.78125 27.4844 10.7812 32.3125
Q14.7969 37.1562 21.9219 38.8125
M18.3125 54.3906
Q18.3125 48.7344 21.8438 45.5625
Q25.3906 42.3906 31.7812 42.3906
Q38.1406 42.3906 41.7188 45.5625
Q45.3125 48.7344 45.3125 54.3906
Q45.3125 60.0625 41.7188 63.2344
Q38.1406 66.4062 31.7812 66.4062
Q25.3906 66.4062 21.8438 63.2344
Q18.3125 60.0625 18.3125 54.3906" id="DejaVuSans-38"/>
      </defs>
      <g transform="translate(323.455862031 401.918125)scale(0.12 -0.12)">
       <use xlink:href="#DejaVuSans-30"/>
       <use x="63.623046875" xlink:href="#DejaVuSans-2e"/>
       <use x="95.41015625" xlink:href="#DejaVuSans-38"/>
      </g>
     </g>
    </g>
    <g id="xtick_5">
     <g id="line2d_9">
      <g>
       <use style="stroke:#000000;stroke-width:0.5;" x="397.389246749" xlink:href="#m93b0483c22" y="388.8"/>
      </g>
     </g>
     <g id="line2d_10">
      <g>
       <use style="stroke:#000000;stroke-width:0.5;" x="397.389246749" xlink:href="#m741efc42ff" y="43.2"/>
      </g>
     </g>
     <g id="text_5">
      <!-- 1.0 -->
      <defs>
       <path d="
M12.4062 8.29688
L28.5156 8.29688
L28.5156 63.9219
L10.9844 60.4062
L10.9844 69.3906
L28.4219 72.9062
L38.2812 72.9062
L38.2812 8.29688
L54.3906 8.29688
L54.3906 0
L12.4062 0
z
" id="DejaVuSans-31"/>
      </defs>
      <g transform="translate(388.904871749 401.918125)scale(0.12 -0.12)">
       <use xlink:href="#DejaVuSans-31"/>
       <use x="63.623046875" xlink:href="#DejaVuSans-2e"/>
       <use x="95.41015625" xlink:href="#DejaVuSans-30"/>
      </g>
     </g>
    </g>
   </g>
   <g id="matplotlib.axis_2">
    <g id="ytick_1">
     <g id="line2d_11">
      <defs>
       <path d="
M0 0
L4 0" id="m728421d6d4" style="stroke:#000000;stroke-width:0.5;"/>
      </defs>
      <g>
       <use style="stroke:#000000;stroke-width:0.5;" x="72.0" xlink:href="#m728421d6d4" y="327.962000655"/>
      </g>
     </g>
     <g id="line2d_12">
      <defs>
       <path d="
M0 0
L-4 0" id="mcb0005524f" style="stroke:#000000;stroke-width:0.5;"/>
      </defs>
      <g>
       <use style="stroke:#000000;stroke-width:0.5;" x="429.12" xlink:href="#mcb0005524f" y="327.962000655"/>
      </g>
     </g>
     <g id="text_6">
      <!-- 0.2 -->
      <g transform="translate(50.909375 331.273250655)scale(0.12 -0.12)">
       <use xlink:href="#DejaVuSans-30"/>
       <use x="63.623046875" xlink:href="#DejaVuSans-2e"/>
       <use x="95.41015625" xlink:href="#DejaVuSans-32"/>
      </g>
     </g>
    </g>
    <g id="ytick_2">
     <g id="line2d_13">
      <g>
       <use style="stroke:#000000;stroke-width:0.5;" x="72.0" xlink:href="#m728421d6d4" y="264.267429264"/>
      </g>
     </g>
     <g id="line2d_14">
      <g>
       <use style="stroke:#000000;stroke-width:0.5;" x="429.12" xlink:href="#mcb0005524f" y="264.267429264"/>
      </g>
     </g>
     <g id="text_7">
      <!-- 0.4 -->
      <g transform="translate(50.380625 267.578679264)scale(0.12 -0.12)">
       <use xlink:href="#DejaVuSans-30"/>
       <use x="63.623046875" xlink:href="#DejaVuSans-2e"/>
       <use x="95.41015625" xlink:href="#DejaVuSans-34"/>
      </g>
     </g>
    </g>
    <g id="ytick_3">
     <g id="line2d_15">
      <g>
       <use style="stroke:#000000;stroke-width:0.5;" x="72.0" xlink:href="#m728421d6d4" y="200.572857872"/>
      </g>
     </g>
     <g id="line2d_16">
      <g>
       <use style="stroke:#000000;stroke-width:0.5;" x="429.12" xlink:href="#mcb0005524f" y="200.572857872"/>
      </g>
     </g>
     <g id="text_8">
      <!-- 0.6 -->
      <g transform="translate(50.463125 203.884107872)scale(0.12 -0.12)">
       <use xlink:href="#DejaVuSans-30"/>
       <use x="63.623046875" xlink:href="#DejaVuSans-2e"/>
       <use x="95.41015625" xlink:href="#DejaVuSans-36"/>
      </g>
     </g>
    </g>
    <g id="ytick_4">
     <g id="line2d_17">
      <g>
       <use style="stroke:#000000;stroke-width:0.5;" x="72.0" xlink:href="#m728421d6d4" y="136.878286481"/>
      </g>
     </g>
     <g id="line2d_18">
      <g>
       <use style="stroke:#000000;stroke-width:0.5;" x="429.12" xlink:href="#mcb0005524f" y="136.878286481"/>
      </g>
     </g>
     <g id="text_9">
      <!-- 0.8 -->
      <g transform="translate(50.52875 140.189536481)scale(0.12 -0.12)">
       <use xlink:href="#DejaVuSans-30"/>
       <use x="63.623046875" xlink:href="#DejaVuSans-2e"/>
       <use x="95.41015625" xlink:href="#DejaVuSans-38"/>
      </g>
     </g>
    </g>
    <g id="ytick_5">
     <g id="line2d_19">
      <g>
       <use style="stroke:#000000;stroke-width:0.5;" x="72.0" xlink:href="#m728421d6d4" y="73.1837150892"/>
      </g>
     </g>
     <g id="line2d_20">
      <g>
       <use style="stroke:#000000;stroke-width:0.5;" x="429.12" xlink:href="#mcb0005524f" y="73.1837150892"/>
      </g>
     </g>
     <g id="text_10">
      <!-- 1.0 -->
      <g transform="translate(51.03125 76.4949650892)scale(0.12 -0.12)">
       <use xlink:href="#DejaVuSans-31"/>
       <use x="63.623046875" xlink:href="#DejaVuSans-2e"/>
       <use x="95.41015625" xlink:href="#DejaVuSans-30"/>
      </g>
     </g>
    </g>
   </g>
   <g id="patch_3">
    <path d="
M72 43.2
L429.12 43.2" style="fill:none;stroke:#000000;"/>
   </g>
   <g id="patch_4">
    <path d="
M429.12 388.8
L429.12 43.2" style="fill:none;stroke:#000000;"/>
   </g>
   <g id="patch_5">
    <path d="
M72 388.8
L429.12 388.8" style="fill:none;stroke:#000000;"/>
   </g>
   <g id="patch_6">
    <path d="
M72 388.8
L72 43.2" style="fill:none;stroke:#000000;"/>
   </g>
   <g id="text_11">
    <g clip-path="url(#pbb64507b19)">
     <!-- 0.000 -->
     <g style="fill:#ff9400;" transform="translate(180.994928977 388.068465909)scale(0.1 -0.1)">
      <use xlink:href="#DejaVuSans-30"/>
      <use x="63.623046875" xlink:href="#DejaVuSans-2e"/>
      <use x="95.41015625" xlink:href="#DejaVuSans-30"/>
      <use x="159.033203125" xlink:href="#DejaVuSans-30"/>
      <use x="222.65625" xlink:href="#DejaVuSans-30"/>
     </g>
    </g>
   </g>
   <g id="text_12">
    <!-- griddata -->
    <defs>
     <path d="
M9.42188 54.6875
L18.4062 54.6875
L18.4062 0
L9.42188 0
z

M9.42188 75.9844
L18.4062 75.9844
L18.4062 64.5938
L9.42188 64.5938
z
" id="DejaVuSans-69"/>
     <path d="
M45.4062 27.9844
Q45.4062 37.75 41.375 43.1094
Q37.3594 48.4844 30.0781 48.4844
Q22.8594 48.4844 18.8281 43.1094
Q14.7969 37.75 14.7969 27.9844
Q14.7969 18.2656 18.8281 12.8906
Q22.8594 7.51562 30.0781 7.51562
Q37.3594 7.51562 41.375 12.8906
Q45.4062 18.2656 45.4062 27.9844
M54.3906 6.78125
Q54.3906 -7.17188 48.1875 -13.9844
Q42 -20.7969 29.2031 -20.7969
Q24.4688 -20.7969 20.2656 -20.0938
Q16.0625 -19.3906 12.1094 -17.9219
L12.1094 -9.1875
Q16.0625 -11.3281 19.9219 -12.3438
Q23.7812 -13.375 27.7812 -13.375
Q36.625 -13.375 41.0156 -8.76562
Q45.4062 -4.15625 45.4062 5.17188
L45.4062 9.625
Q42.625 4.78125 38.2812 2.39062
Q33.9375 0 27.875 0
Q17.8281 0 11.6719 7.65625
Q5.51562 15.3281 5.51562 27.9844
Q5.51562 40.6719 11.6719 48.3281
Q17.8281 56 27.875 56
Q33.9375 56 38.2812 53.6094
Q42.625 51.2188 45.4062 46.3906
L45.4062 54.6875
L54.3906 54.6875
z
" id="DejaVuSans-67"/>
     <path d="
M18.3125 70.2188
L18.3125 54.6875
L36.8125 54.6875
L36.8125 47.7031
L18.3125 47.7031
L18.3125 18.0156
Q18.3125 11.3281 20.1406 9.42188
Q21.9688 7.51562 27.5938 7.51562
L36.8125 7.51562
L36.8125 0
L27.5938 0
Q17.1875 0 13.2344 3.875
Q9.28125 7.76562 9.28125 18.0156
L9.28125 47.7031
L2.6875 47.7031
L2.6875 54.6875
L9.28125 54.6875
L9.28125 70.2188
z
" id="DejaVuSans-74"/>
     <path d="
M45.4062 46.3906
L45.4062 75.9844
L54.3906 75.9844
L54.3906 0
L45.4062 0
L45.4062 8.20312
Q42.5781 3.32812 38.25 0.953125
Q33.9375 -1.42188 27.875 -1.42188
Q17.9688 -1.42188 11.7344 6.48438
Q5.51562 14.4062 5.51562 27.2969
Q5.51562 40.1875 11.7344 48.0938
Q17.9688 56 27.875 56
Q33.9375 56 38.25 53.625
Q42.5781 51.2656 45.4062 46.3906
M14.7969 27.2969
Q14.7969 17.3906 18.875 11.75
Q22.9531 6.10938 30.0781 6.10938
Q37.2031 6.10938 41.2969 11.75
Q45.4062 17.3906 45.4062 27.2969
Q45.4062 37.2031 41.2969 42.8438
Q37.2031 48.4844 30.0781 48.4844
Q22.9531 48.4844 18.875 42.8438
Q14.7969 37.2031 14.7969 27.2969" id="DejaVuSans-64"/>
     <path d="
M41.1094 46.2969
Q39.5938 47.1719 37.8125 47.5781
Q36.0312 48 33.8906 48
Q26.2656 48 22.1875 43.0469
Q18.1094 38.0938 18.1094 28.8125
L18.1094 0
L9.07812 0
L9.07812 54.6875
L18.1094 54.6875
L18.1094 46.1875
Q20.9531 51.1719 25.4844 53.5781
Q30.0312 56 36.5312 56
Q37.4531 56 38.5781 55.875
Q39.7031 55.7656 41.0625 55.5156
z
" id="DejaVuSans-72"/>
     <path d="
M34.2812 27.4844
Q23.3906 27.4844 19.1875 25
Q14.9844 22.5156 14.9844 16.5
Q14.9844 11.7188 18.1406 8.90625
Q21.2969 6.10938 26.7031 6.10938
Q34.1875 6.10938 38.7031 11.4062
Q43.2188 16.7031 43.2188 25.4844
L43.2188 27.4844
z

M52.2031 31.2031
L52.2031 0
L43.2188 0
L43.2188 8.29688
Q40.1406 3.32812 35.5469 0.953125
Q30.9531 -1.42188 24.3125 -1.42188
Q15.9219 -1.42188 10.9531 3.29688
Q6 8.01562 6 15.9219
Q6 25.1406 12.1719 29.8281
Q18.3594 34.5156 30.6094 34.5156
L43.2188 34.5156
L43.2188 35.4062
Q43.2188 41.6094 39.1406 45
Q35.0625 48.3906 27.6875 48.3906
Q23 48.3906 18.5469 47.2656
Q14.1094 46.1406 10.0156 43.8906
L10.0156 52.2031
Q14.9375 54.1094 19.5781 55.0469
Q24.2188 56 28.6094 56
Q40.4844 56 46.3438 49.8438
Q52.2031 43.7031 52.2031 31.2031" id="DejaVuSans-61"/>
    </defs>
    <g transform="translate(221.290875 38.2)scale(0.144 -0.144)">
     <use xlink:href="#DejaVuSans-67"/>
     <use x="63.4765625" xlink:href="#DejaVuSans-72"/>
     <use x="104.58984375" xlink:href="#DejaVuSans-69"/>
     <use x="132.373046875" xlink:href="#DejaVuSans-64"/>
     <use x="195.849609375" xlink:href="#DejaVuSans-64"/>
     <use x="259.326171875" xlink:href="#DejaVuSans-61"/>
     <use x="320.60546875" xlink:href="#DejaVuSans-74"/>
     <use x="359.814453125" xlink:href="#DejaVuSans-61"/>
    </g>
   </g>
  </g>
  <g id="axes_2">
   <g id="patch_7">
    <path clip-path="url(#p8630e4bf2e)" d="
M451.44 388.8
L451.44 364.114
L451.44 67.8857
L451.44 43.2
L468.72 43.2
L468.72 67.8857
L468.72 364.114
L468.72 388.8
z
" style="fill:#ffffff;stroke:#ffffff;stroke-width:0.01;"/>
   </g>
   <g id="QuadMesh_1">
    <defs>
     <path d="
M451.44 -43.2
L468.72 -43.2
L468.72 -67.8857
L451.44 -67.8857
L451.44 -43.2" id="Ce_0_166c352541"/>
     <path d="
M451.44 -67.8857
L468.72 -67.8857
L468.72 -92.5714
L451.44 -92.5714
L451.44 -67.8857" id="Ce_1_b01ca2e416"/>
     <path d="
M451.44 -92.5714
L468.72 -92.5714
L468.72 -117.257
L451.44 -117.257
L451.44 -92.5714" id="Ce_2_2a6b3ffb45"/>
     <path d="
M451.44 -117.257
L468.72 -117.257
L468.72 -141.943
L451.44 -141.943
L451.44 -117.257" id="Ce_3_06ea86e150"/>
     <path d="
M451.44 -141.943
L468.72 -141.943
L468.72 -166.629
L451.44 -166.629
L451.44 -141.943" id="Ce_4_114790f356"/>
     <path d="
M451.44 -166.629
L468.72 -166.629
L468.72 -191.314
L451.44 -191.314
L451.44 -166.629" id="Ce_5_c595a9ac67"/>
     <path d="
M451.44 -191.314
L468.72 -191.314
L468.72 -216
L451.44 -216
L451.44 -191.314" id="Ce_6_59c6fe4277"/>
     <path d="
M451.44 -216
L468.72 -216
L468.72 -240.686
L451.44 -240.686
L451.44 -216" id="Ce_7_5746868969"/>
     <path d="
M451.44 -240.686
L468.72 -240.686
L468.72 -265.371
L451.44 -265.371
L451.44 -240.686" id="Ce_8_bfe870aac9"/>
     <path d="
M451.44 -265.371
L468.72 -265.371
L468.72 -290.057
L451.44 -290.057
L451.44 -265.371" id="Ce_9_f315736776"/>
     <path d="
M451.44 -290.057
L468.72 -290.057
L468.72 -314.743
L451.44 -314.743
L451.44 -290.057" id="Ce_a_4c8bd8b76e"/>
     <path d="
M451.44 -314.743
L468.72 -314.743
L468.72 -339.429
L451.44 -339.429
L451.44 -314.743" id="Ce_b_afcd3faf4f"/>
     <path d="
M451.44 -339.429
L468.72 -339.429
L468.72 -364.114
L451.44 -364.114
L451.44 -339.429" id="Ce_c_dc1aadbedc"/>
     <path d="
M451.44 -364.114
L468.72 -364.114
L468.72 -388.8
L451.44 -388.8
L451.44 -364.114" id="Ce_d_e89a949844"/>
    </defs>
    <g clip-path="url(#p8630e4bf2e)">
     <use style="fill:#0000a8;" x="0.0" xlink:href="#Ce_0_166c352541" y="432.0"/>
    </g>
    <g clip-path="url(#p8630e4bf2e)">
     <use style="fill:#0000fa;" x="0.0" xlink:href="#Ce_1_b01ca2e416" y="432.0"/>
    </g>
    <g clip-path="url(#p8630e4bf2e)">
     <use style="fill:#0034ff;" x="0.0" xlink:href="#Ce_2_2a6b3ffb45" y="432.0"/>
    </g>
    <g clip-path="url(#p8630e4bf2e)">
     <use style="fill:#0080ff;" x="0.0" xlink:href="#Ce_3_06ea86e150" y="432.0"/>
    </g>
    <g clip-path="url(#p8630e4bf2e)">
     <use style="fill:#00c8ff;" x="0.0" xlink:href="#Ce_4_114790f356" y="432.0"/>
    </g>
    <g clip-path="url(#p8630e4bf2e)">
     <use style="fill:#23ffd4;" x="0.0" xlink:href="#Ce_5_c595a9ac67" y="432.0"/>
    </g>
    <g clip-path="url(#p8630e4bf2e)">
     <use style="fill:#5dff9a;" x="0.0" xlink:href="#Ce_6_59c6fe4277" y="432.0"/>
    </g>
    <g clip-path="url(#p8630e4bf2e)">
     <use style="fill:#9aff5d;" x="0.0" xlink:href="#Ce_7_5746868969" y="432.0"/>
    </g>
    <g clip-path="url(#p8630e4bf2e)">
     <use style="fill:#d4ff23;" x="0.0" xlink:href="#Ce_8_bfe870aac9" y="432.0"/>
    </g>
    <g clip-path="url(#p8630e4bf2e)">
     <use style="fill:#ffdb00;" x="0.0" xlink:href="#Ce_9_f315736776" y="432.0"/>
    </g>
    <g clip-path="url(#p8630e4bf2e)">
     <use style="fill:#ff9400;" x="0.0" xlink:href="#Ce_a_4c8bd8b76e" y="432.0"/>
    </g>
    <g clip-path="url(#p8630e4bf2e)">
     <use style="fill:#ff5200;" x="0.0" xlink:href="#Ce_b_afcd3faf4f" y="432.0"/>
    </g>
    <g clip-path="url(#p8630e4bf2e)">
     <use style="fill:#fa0f00;" x="0.0" xlink:href="#Ce_c_dc1aadbedc" y="432.0"/>
    </g>
    <g clip-path="url(#p8630e4bf2e)">
     <use style="fill:#a80000;" x="0.0" xlink:href="#Ce_d_e89a949844" y="432.0"/>
    </g>
   </g>
   <g id="line2d_21">
    <path d="
M451.44 388.8
L451.44 364.114
L451.44 67.8857
L451.44 43.2
L468.72 43.2
L468.72 67.8857
L468.72 364.114
L468.72 388.8
L451.44 388.8" style="fill:none;stroke:#000000;stroke-linecap:square;"/>
   </g>
   <g id="matplotlib.axis_3"/>
   <g id="matplotlib.axis_4">
    <g id="ytick_6">
     <g id="line2d_22">
      <g>
       <use style="stroke:#000000;stroke-width:0.5;" x="468.72" xlink:href="#mcb0005524f" y="388.8"/>
      </g>
     </g>
     <g id="text_13">
      <!-- −8.0 -->
      <defs>
       <path d="
M10.5938 35.5
L73.1875 35.5
L73.1875 27.2031
L10.5938 27.2031
z
" id="DejaVuSans-2212"/>
      </defs>
      <g transform="translate(472.72 392.11125)scale(0.12 -0.12)">
       <use xlink:href="#DejaVuSans-2212"/>
       <use x="83.7890625" xlink:href="#DejaVuSans-38"/>
       <use x="147.412109375" xlink:href="#DejaVuSans-2e"/>
       <use x="179.19921875" xlink:href="#DejaVuSans-30"/>
      </g>
     </g>
    </g>
    <g id="ytick_7">
     <g id="line2d_23">
      <g>
       <use style="stroke:#000000;stroke-width:0.5;" x="468.72" xlink:href="#mcb0005524f" y="339.428571429"/>
      </g>
     </g>
     <g id="text_14">
      <!-- −6.4 -->
      <g transform="translate(472.72 342.739821429)scale(0.12 -0.12)">
       <use xlink:href="#DejaVuSans-2212"/>
       <use x="83.7890625" xlink:href="#DejaVuSans-36"/>
       <use x="147.412109375" xlink:href="#DejaVuSans-2e"/>
       <use x="179.19921875" xlink:href="#DejaVuSans-34"/>
      </g>
     </g>
    </g>
    <g id="ytick_8">
     <g id="line2d_24">
      <g>
       <use style="stroke:#000000;stroke-width:0.5;" x="468.72" xlink:href="#mcb0005524f" y="290.057142857"/>
      </g>
     </g>
     <g id="text_15">
      <!-- −4.8 -->
      <g transform="translate(472.72 293.368392857)scale(0.12 -0.12)">
       <use xlink:href="#DejaVuSans-2212"/>
       <use x="83.7890625" xlink:href="#DejaVuSans-34"/>
       <use x="147.412109375" xlink:href="#DejaVuSans-2e"/>
       <use x="179.19921875" xlink:href="#DejaVuSans-38"/>
      </g>
     </g>
    </g>
    <g id="ytick_9">
     <g id="line2d_25">
      <g>
       <use style="stroke:#000000;stroke-width:0.5;" x="468.72" xlink:href="#mcb0005524f" y="240.685714286"/>
      </g>
     </g>
     <g id="text_16">
      <!-- −3.2 -->
      <defs>
       <path d="
M40.5781 39.3125
Q47.6562 37.7969 51.625 33
Q55.6094 28.2188 55.6094 21.1875
Q55.6094 10.4062 48.1875 4.48438
Q40.7656 -1.42188 27.0938 -1.42188
Q22.5156 -1.42188 17.6562 -0.515625
Q12.7969 0.390625 7.625 2.20312
L7.625 11.7188
Q11.7188 9.32812 16.5938 8.10938
Q21.4844 6.89062 26.8125 6.89062
Q36.0781 6.89062 40.9375 10.5469
Q45.7969 14.2031 45.7969 21.1875
Q45.7969 27.6406 41.2812 31.2656
Q36.7656 34.9062 28.7188 34.9062
L20.2188 34.9062
L20.2188 43.0156
L29.1094 43.0156
Q36.375 43.0156 40.2344 45.9219
Q44.0938 48.8281 44.0938 54.2969
Q44.0938 59.9062 40.1094 62.9062
Q36.1406 65.9219 28.7188 65.9219
Q24.6562 65.9219 20.0156 65.0312
Q15.375 64.1562 9.8125 62.3125
L9.8125 71.0938
Q15.4375 72.6562 20.3438 73.4375
Q25.25 74.2188 29.5938 74.2188
Q40.8281 74.2188 47.3594 69.1094
Q53.9062 64.0156 53.9062 55.3281
Q53.9062 49.2656 50.4375 45.0938
Q46.9688 40.9219 40.5781 39.3125" id="DejaVuSans-33"/>
      </defs>
      <g transform="translate(472.72 243.996964286)scale(0.12 -0.12)">
       <use xlink:href="#DejaVuSans-2212"/>
       <use x="83.7890625" xlink:href="#DejaVuSans-33"/>
       <use x="147.412109375" xlink:href="#DejaVuSans-2e"/>
       <use x="179.19921875" xlink:href="#DejaVuSans-32"/>
      </g>
     </g>
    </g>
    <g id="ytick_10">
     <g id="line2d_26">
      <g>
       <use style="stroke:#000000;stroke-width:0.5;" x="468.72" xlink:href="#mcb0005524f" y="191.314285714"/>
      </g>
     </g>
     <g id="text_17">
      <!-- −1.6 -->
      <g transform="translate(472.72 194.625535714)scale(0.12 -0.12)">
       <use xlink:href="#DejaVuSans-2212"/>
       <use x="83.7890625" xlink:href="#DejaVuSans-31"/>
       <use x="147.412109375" xlink:href="#DejaVuSans-2e"/>
       <use x="179.19921875" xlink:href="#DejaVuSans-36"/>
      </g>
     </g>
    </g>
    <g id="ytick_11">
     <g id="line2d_27">
      <g>
       <use style="stroke:#000000;stroke-width:0.5;" x="468.72" xlink:href="#mcb0005524f" y="141.942857143"/>
      </g>
     </g>
     <g id="text_18">
      <!-- 0.0 -->
      <g transform="translate(472.72 145.254107143)scale(0.12 -0.12)">
       <use xlink:href="#DejaVuSans-30"/>
       <use x="63.623046875" xlink:href="#DejaVuSans-2e"/>
       <use x="95.41015625" xlink:href="#DejaVuSans-30"/>
      </g>
     </g>
    </g>
    <g id="ytick_12">
     <g id="line2d_28">
      <g>
       <use style="stroke:#000000;stroke-width:0.5;" x="468.72" xlink:href="#mcb0005524f" y="92.5714285714"/>
      </g>
     </g>
     <g id="text_19">
      <!-- 1.6 -->
      <g transform="translate(472.72 95.8826785714)scale(0.12 -0.12)">
       <use xlink:href="#DejaVuSans-31"/>
       <use x="63.623046875" xlink:href="#DejaVuSans-2e"/>
       <use x="95.41015625" xlink:href="#DejaVuSans-36"/>
      </g>
     </g>
    </g>
    <g id="ytick_13">
     <g id="line2d_29">
      <g>
       <use style="stroke:#000000;stroke-width:0.5;" x="468.72" xlink:href="#mcb0005524f" y="43.2"/>
      </g>
     </g>
     <g id="text_20">
      <!-- 3.2 -->
      <g transform="translate(472.72 46.51125)scale(0.12 -0.12)">
       <use xlink:href="#DejaVuSans-33"/>
       <use x="63.623046875" xlink:href="#DejaVuSans-2e"/>
       <use x="95.41015625" xlink:href="#DejaVuSans-32"/>
      </g>
     </g>
    </g>
   </g>
  </g>
 </g>
 <defs>
  <clipPath id="p8630e4bf2e">
   <rect height="345.6" width="17.28" x="451.44" y="43.2"/>
  </clipPath>
  <clipPath id="pbb64507b19">
   <rect height="345.6" width="357.12" x="72.0" y="43.2"/>
  </clipPath>
 </defs>
</svg>
