<?xml version="1.0" encoding="utf-8" standalone="no"?>
<!DOCTYPE svg PUBLIC "-//W3C//DTD SVG 1.1//EN"
  "http://www.w3.org/Graphics/SVG/1.1/DTD/svg11.dtd">
<!-- Created with matplotlib (http://matplotlib.org/) -->
<svg height="432pt" version="1.1" viewBox="0 0 576 432" width="576pt" xmlns="http://www.w3.org/2000/svg" xmlns:xlink="http://www.w3.org/1999/xlink">
 <defs>
  <style type="text/css">
*{stroke-linecap:butt;stroke-linejoin:round;}
  </style>
 </defs>
 <g id="figure_1">
  <g id="patch_1">
   <path d="
M0 432
L576 432
L576 0
L0 0
z
" style="fill:#ffffff;"/>
  </g>
  <g id="axes_1">
   <g id="patch_2">
    <path d="
M72 388.8
L429.12 388.8
L429.12 43.2
L72 43.2
z
" style="fill:#ffffff;"/>
   </g>
   <g id="LineCollection_1">
    <defs>
     <path d="
M288.436 -203.211
L286.662 -203.782
L284.829 -207.187
L284.768 -207.273
L284.829 -207.301
L288.436 -207.88
L292.044 -207.992
L295.651 -207.686
L297.676 -207.273
L299.258 -206.353
L302.865 -204.279
L303.426 -203.782
L302.865 -203.551
L299.258 -202.743
L295.651 -202.47
L292.044 -202.37
L288.436 -203.211" id="C0_0_51c8d20ee5"/>
    </defs>
    <g clip-path="url(#pbb64507b19)">
     <use style="fill:none;stroke:#000080;" x="0.0" xlink:href="#C0_0_51c8d20ee5" y="432.0"/>
    </g>
   </g>
   <g id="LineCollection_2">
    <defs>
     <path d="
M292.044 -199.974
L291.208 -200.291
L288.436 -201.759
L284.829 -202.819
L283.348 -203.782
L281.222 -206.159
L280.172 -207.273
L281.222 -208.746
L284.829 -210.074
L288.436 -210.737
L288.679 -210.764
L292.044 -211.081
L295.651 -210.971
L296.762 -210.764
L299.258 -210.201
L302.865 -208.942
L306.473 -207.442
L306.796 -207.273
L309.5 -203.782
L306.473 -200.379
L302.865 -200.421
L302.494 -200.291
L299.258 -199.724
L295.651 -199.85
L292.044 -199.974" id="C1_0_0b0ec1dd49"/>
    </defs>
    <g clip-path="url(#pbb64507b19)">
     <use style="fill:none;stroke:#0000f1;" x="0.0" xlink:href="#C1_0_0b0ec1dd49" y="432.0"/>
    </g>
   </g>
   <g id="LineCollection_3">
    <defs>
     <path d="
M134.746 -46.6909
L133.324 -48.3647
L131.635 -50.1818
L129.716 -51.2893
L126.296 -53.6727
L126.109 -53.8613
L123.503 -57.1636
L122.502 -59.5836
L122.192 -60.6545
L122.502 -62.2864
L122.802 -64.1455
L124.442 -67.6364
L126.109 -71.0089
L126.169 -71.1273
L127.717 -74.6182
L129.101 -78.1091
L129.716 -79.9605
L130.269 -81.6
L131.045 -85.0909
L131.604 -88.5818
L132.32 -92.0727
L132.972 -95.5636
L133.324 -97.795
L133.522 -99.0545
L133.879 -102.545
L133.947 -106.036
L133.637 -109.527
L133.324 -111.047
L132.909 -113.018
L132.062 -116.509
L131.331 -120
L130.754 -123.491
L130.343 -126.982
L130.111 -130.473
L130.064 -133.964
L130.183 -137.455
L130.43 -140.945
L130.752 -144.436
L131.09 -147.927
L131.754 -151.418
L132.982 -154.909
L133.324 -155.84
L134.287 -158.4
L135.294 -161.891
L135.616 -163.465" id="C2_0_4ac4752a00"/>
     <path d="
M138.35 -202.054
L138.869 -203.782
L140.372 -207.273
L140.538 -207.654
L141.813 -210.764
L142.697 -214.255
L142.577 -217.745
L141.993 -221.236
L141.468 -224.727
L141.366 -228.218
L141.577 -231.709
L142.05 -235.2
L142.763 -238.691
L143.779 -242.182
L144.145 -243.235
L144.875 -245.673
L146.456 -249.164
L147.753 -250.599
L148.804 -252.655
L151.016 -256.145
L151.36 -256.501
L153.62 -259.636
L154.967 -261.409
L156.424 -263.127
L158.575 -265.555
L159.58 -266.618
L162.182 -269.362
L162.858 -270.109
L165.789 -273.565
L165.816 -273.6
L168.12 -277.091
L169.396 -279.664
L169.833 -280.582
L171.082 -284.073
L171.945 -287.564
L172.412 -291.055
L172.831 -294.545
L173.004 -295.153
L174.243 -298.036
L176.611 -300.34
L178.158 -301.527
L180.218 -302.861
L183.825 -304.905
L184.045 -305.018
L187.433 -307.047
L190.409 -308.509
L191.04 -308.993
L194.647 -311.3
L196.137 -312
L196.805 -315.491
L194.647 -317.057
L192.362 -318.982
L191.04 -321.317
L190.573 -322.473
L191.04 -323.672
L194.647 -323.309
L196.596 -322.473
L197.021 -318.982
L198.255 -317.28
L200.869 -318.982
L199.553 -322.473
L198.255 -325.734
L198.188 -325.964
L197.577 -329.455
L197.778 -332.945
L198.255 -333.666
L200.055 -336.436
L201.862 -338.291
L203.558 -339.927
L205.469 -341.612
L207.645 -343.418
L209.076 -344.232
L212.684 -345.946
L215.175 -346.909
L216.291 -347.461
L219.898 -349.136
L222.637 -350.4
L223.505 -351.018
L227.113 -352.991
L229.3 -353.891" id="C2_1_ae5efb7076"/>
     <path d="
M313.996 -199.385
L313.687 -199.028
L310.08 -197.583
L306.473 -197.479
L302.865 -197.934
L299.258 -198.153
L295.651 -198.597
L292.044 -198.933
L288.467 -200.291
L288.436 -200.307
L284.829 -201.199
L281.222 -203.309
L280.114 -203.782
L277.615 -207.021
L277.423 -207.273
L276.898 -210.764
L277.615 -211.128
L281.222 -212.121
L283.599 -212.526" id="C2_2_67c488a390"/>
     <path d="
M140.538 -255.596
L140.982 -256.145
L140.538 -257.651
L138.655 -256.145
L140.538 -255.596" id="C2_3_b6901b431f"/>
     <path d="
M306.473 -350.323
L304.025 -350.4
L306.473 -350.49
L307.7 -350.4
L306.473 -350.323" id="C2_4_f3106d9e7b"/>
     <path d="
M364.189 -348.53
L360.582 -350.036
L360.214 -350.4
L356.975 -353.786
L356.857 -353.891" id="C2_5_37e9bc8684"/>
    </defs>
    <g clip-path="url(#pbb64507b19)">
     <use style="fill:none;stroke:#004cff;" x="0.0" xlink:href="#C2_0_4ac4752a00" y="432.0"/>
    </g>
    <g clip-path="url(#pbb64507b19)">
     <use style="fill:none;stroke:#004cff;" x="0.0" xlink:href="#C2_1_ae5efb7076" y="432.0"/>
    </g>
    <g clip-path="url(#pbb64507b19)">
     <use style="fill:none;stroke:#004cff;" x="0.0" xlink:href="#C2_2_67c488a390" y="432.0"/>
    </g>
    <g clip-path="url(#pbb64507b19)">
     <use style="fill:none;stroke:#004cff;" x="0.0" xlink:href="#C2_3_b6901b431f" y="432.0"/>
    </g>
    <g clip-path="url(#pbb64507b19)">
     <use style="fill:none;stroke:#004cff;" x="0.0" xlink:href="#C2_4_f3106d9e7b" y="432.0"/>
    </g>
    <g clip-path="url(#pbb64507b19)">
     <use style="fill:none;stroke:#004cff;" x="0.0" xlink:href="#C2_5_37e9bc8684" y="432.0"/>
    </g>
   </g>
   <g id="LineCollection_4">
    <defs>
     <path d="
M220.932 -46.6909
L219.898 -48.1642
L218.755 -50.1818
L216.291 -51.3826
L212.684 -53.204
L211.778 -53.6727
L209.076 -54.6727
L205.469 -55.938
L201.879 -57.1636
L201.862 -57.1704
L198.255 -58.5319
L194.647 -59.8488
L192.418 -60.6545
L191.04 -61.2436
L187.433 -62.7916
L184.31 -64.1455
L183.825 -64.4061
L180.218 -66.4069
L178.09 -67.6364
L176.611 -68.7893
L173.789 -71.1273
L173.004 -72.1496
L171.25 -74.6182
L170.227 -78.1091
L171.762 -81.6
L173.004 -82.4667
L176.611 -84.407
L178.236 -85.0909
L180.218 -85.8393
L183.825 -87.021
L187.433 -88.1184
L189.024 -88.5818
L191.04 -89.2731
L194.647 -90.7526
L196.971 -92.0727
L198.255 -93.5394
L199.383 -95.5636
L199.544 -99.0545
L198.888 -102.545
L198.255 -104.138
L197.579 -106.036
L196.539 -109.527
L195.79 -113.018
L195.467 -114.764" id="C3_0_c14daa51ff"/>
     <path d="
M198.317 -151.632
L198.796 -154.909
L199.192 -158.4
L199.534 -161.891
L199.912 -165.382
L200.481 -168.873
L201.481 -172.364
L201.862 -173.23
L203.533 -175.855
L205.469 -177.67
L208.991 -179.345
L209.076 -179.397
L212.415 -182.836
L212.684 -184.624
L212.928 -186.327
L212.684 -187.121
L212.015 -189.818
L210.114 -193.309
L209.076 -194.545
L207.568 -196.8
L205.469 -199.165
L204.658 -200.291
L201.862 -203.443
L201.613 -203.782
L199.031 -207.273
L201.862 -208.733
L205.469 -210.275
L206.939 -210.764
L209.076 -211.309
L212.684 -212.061
L216.291 -212.69
L219.898 -213.218
L223.505 -213.48
L227.113 -212.75
L230.545 -210.764
L230.72 -210.623
L232.591 -207.273
L231.822 -203.782
L231.214 -200.291
L230.882 -196.8
L230.908 -193.309
L231.468 -189.818
L232.897 -186.327
L234.327 -184.441
L235.264 -182.836
L237.935 -179.891
L238.056 -179.345
L239.042 -175.855
L240.459 -172.364
L241.542 -170.492
L245.149 -171.308
L245.82 -172.364
L247.777 -175.855
L248.756 -177.516
L249.758 -179.345
L251.497 -182.836
L252.364 -184.569
L253.202 -186.327
L254.774 -189.818
L255.971 -192.469
L256.318 -193.309
L257.583 -196.8
L258.743 -200.291
L259.506 -203.782
L258.584 -207.273
L255.971 -209.021
L254.062 -210.764
L252.364 -213.307
L251.857 -214.255
L250.598 -217.745
L249.713 -221.236
L249.027 -224.727
L248.756 -226.495
L247.837 -228.218
L246.493 -231.709
L245.68 -235.2
L245.36 -238.691
L245.496 -242.182
L246.012 -245.673
L246.972 -249.164
L248.756 -251.417
L252.364 -251.471
L255.971 -249.794
L256.968 -249.164
L259.578 -247.804
L263.12 -245.673
L263.185 -245.635
L266.793 -243.584
L269.436 -242.182
L270.4 -241.594
L274.007 -239.513
L275.758 -238.691
L277.615 -237.561
L278.399 -238.691
L281.222 -241.771
L281.597 -242.182
L284.829 -244.021
L288.436 -245.218
L289.812 -245.673
L292.044 -246.994
L295.651 -248.732
L296.865 -249.164
L299.258 -251.349
L301.998 -252.655
L302.865 -253.11
L306.473 -253.141
L307.248 -252.655
L310.08 -250.946
L311.275 -249.164
L312.833 -245.673
L313.687 -244.344
L314.978 -242.182
L317.295 -239.435
L318.099 -238.691
L320.902 -235.583
L324.509 -235.535
L328.116 -237.926
L329.055 -238.691
L331.724 -241.905
L332.11 -242.182
L335.331 -245.468
L335.737 -245.673
L338.938 -248.309
L342.545 -248.895
L346.153 -248.181
L349.76 -246.103
L350.078 -245.673
L351.021 -242.182
L351.177 -238.691
L351.199 -235.2
L351.336 -231.709
L351.445 -228.218
L351.231 -224.727
L351.059 -221.236
L352.387 -217.745
L353.367 -216.316
L354.72 -214.255
L356.975 -211.691
L357.811 -210.764
L360.582 -208.363
L361.88 -207.273
L363.235 -203.782
L364.189 -202.078
L367.496 -200.291
L367.796 -200.148
L371.404 -199.081
L375.011 -198.836
L378.172 -200.291
L378.618 -200.745
L379.269 -203.782
L379.542 -207.273
L379.821 -210.764
L379.969 -214.255
L380.008 -217.745
L380.265 -221.236
L380.709 -224.727
L381.36 -228.218
L382.225 -231.448
L382.338 -231.709
L384.226 -235.2
L385.833 -237.498
L389.44 -236.146
L389.701 -235.2
L390.517 -231.709
L391.206 -228.218
L391.798 -224.727
L392.309 -221.236
L392.742 -217.745
L393.047 -214.726" id="C3_1_2e868a4185"/>
     <path d="
M295.651 -136.376
L292.774 -137.455
L292.044 -138.318
L290.608 -140.945
L290.664 -144.436
L292.044 -145.823
L294.556 -147.927
L295.651 -148.308
L299.258 -149.436
L302.865 -149.78
L306.237 -147.927
L306.473 -147.604
L307.256 -144.436
L307.399 -140.945
L306.473 -139.785
L302.865 -137.591
L302.454 -137.455
L299.258 -136.707
L295.651 -136.376" id="C3_2_446b63f4b9"/>
     <path d="
M317.295 -147.085
L316.779 -147.927
L315.767 -151.418
L315.919 -154.909
L317.122 -158.4
L317.295 -158.655
L320.847 -161.891
L320.902 -161.959
L324.509 -164.24
L328.116 -163.848
L330.052 -161.891
L331.724 -159.184
L332.231 -158.4
L333.23 -154.909
L333.238 -151.418
L331.724 -149.768
L328.721 -147.927
L328.116 -147.741
L324.509 -146.902
L320.902 -146.324
L317.295 -147.085" id="C3_3_5e1f698ee9"/>
     <path d="
M338.938 -164.724
L338.426 -165.382
L337.793 -168.873
L338.938 -170.502
L339.668 -168.873
L339.444 -165.382
L338.938 -164.724" id="C3_4_77a56c301e"/>
     <path d="
M268.408 -207.286
L269.969 -210.764
L270.4 -211.176
L274.007 -214.227
L274.112 -214.255
L277.615 -216.016
L281.222 -216.562
L284.829 -216.757
L288.436 -216.835
L292.044 -216.883
L295.651 -216.87
L299.258 -216.768
L302.865 -216.648
L306.473 -216.608
L310.08 -216.435
L313.687 -215.597
L315.34 -214.255
L317.295 -212.062
L317.794 -210.764
L319.626 -207.273
L320.733 -203.782
L320.902 -201.882
L321.252 -200.291
L321.098 -196.8
L320.902 -196.456
L317.295 -193.721
L313.687 -194.234
L310.08 -194.878
L306.473 -195.464
L303.965 -195.857" id="C3_5_7ac75997ec"/>
    </defs>
    <g clip-path="url(#pbb64507b19)">
     <use style="fill:none;stroke:#00b0ff;" x="0.0" xlink:href="#C3_0_c14daa51ff" y="432.0"/>
    </g>
    <g clip-path="url(#pbb64507b19)">
     <use style="fill:none;stroke:#00b0ff;" x="0.0" xlink:href="#C3_1_2e868a4185" y="432.0"/>
    </g>
    <g clip-path="url(#pbb64507b19)">
     <use style="fill:none;stroke:#00b0ff;" x="0.0" xlink:href="#C3_2_446b63f4b9" y="432.0"/>
    </g>
    <g clip-path="url(#pbb64507b19)">
     <use style="fill:none;stroke:#00b0ff;" x="0.0" xlink:href="#C3_3_5e1f698ee9" y="432.0"/>
    </g>
    <g clip-path="url(#pbb64507b19)">
     <use style="fill:none;stroke:#00b0ff;" x="0.0" xlink:href="#C3_4_77a56c301e" y="432.0"/>
    </g>
    <g clip-path="url(#pbb64507b19)">
     <use style="fill:none;stroke:#00b0ff;" x="0.0" xlink:href="#C3_5_7ac75997ec" y="432.0"/>
    </g>
   </g>
   <g id="LineCollection_5">
    <defs>
     <path d="
M283.882 -66.8134
L281.222 -65.6908
L279.542 -64.1455
L277.615 -62.2069
L274.007 -61.0986
L273.546 -60.6545
L273.039 -57.1636
L274.007 -56.7969
L277.615 -55.8818
L281.222 -55.2642
L284.829 -54.8011
L288.436 -54.427
L292.044 -54.114
L295.651 -53.8565
L298.925 -53.6727
L299.258 -53.6525
L302.865 -53.5097
L306.473 -53.4617
L310.08 -53.5222
L313.048 -53.6727
L313.687 -53.7117
L317.295 -54.1107
L320.902 -54.7819
L324.509 -55.8674
L327.259 -57.1636
L328.116 -57.5158
L331.155 -60.6545
L331.709 -64.1455
L331.724 -64.2822
L332.249 -67.6364
L333.335 -71.1273
L334.633 -74.6182
L335.331 -76.3778
L336.077 -78.1091
L337.583 -81.6
L338.938 -84.8554
L339.045 -85.0909
L340.379 -88.5818
L341.408 -92.0727
L341.858 -95.5636
L342.266 -99.0545
L340.461 -102.545
L338.938 -104.556
L337.207 -106.036
L335.331 -107.343
L331.724 -108.771
L328.116 -109.437
L325.325 -109.527
L324.509 -109.552
L324.321 -109.527
L320.902 -109.12
L317.295 -108.038
L313.781 -106.036
L313.687 -105.985
L310.08 -102.825
L309.853 -102.545
L306.876 -99.0545
L306.473 -98.6041
L306.153 -98.136" id="C4_0_4c6c962102"/>
     <path d="
M243.598 -122.9
L245.149 -122.184
L248.756 -120.665
L249.913 -120
L252.364 -119.264
L255.971 -118.156
L259.578 -116.794
L260.329 -116.509
L263.185 -115.779
L266.793 -114.827
L270.4 -113.796
L273.156 -113.018
L274.007 -112.822
L277.615 -112.356
L281.222 -112.813
L281.457 -113.018
L281.222 -113.824
L280.641 -116.509
L277.725 -120
L277.615 -120.075
L274.055 -122.343" id="C4_1_c30f10a0b1"/>
     <path d="
M338.938 -111.174
L340.799 -113.018
L340.165 -116.509
L338.938 -119.911
L338.864 -120
L335.421 -123.491
L335.331 -123.559
L335.162 -123.491
L333.993 -120
L335.05 -116.509
L335.331 -116.029
L337.678 -113.018
L338.938 -111.174" id="C4_2_308874ab0e"/>
     <path d="
M312.597 -165.012
L312.906 -165.382
L313.687 -167.876
L314.202 -168.873
L315.398 -172.364
L316.099 -175.855
L316.554 -179.345
L316.832 -182.836
L316.92 -186.327
L315.521 -189.818
L313.687 -190.74
L310.08 -192.369
L307.912 -193.309
L306.473 -193.711
L302.865 -194.601
L299.258 -195.375
L295.651 -196.177
L292.334 -196.8
L292.044 -196.851
L288.436 -197.411
L284.829 -197.805
L281.222 -198.018
L277.615 -197.985
L274.007 -197.55
L271.455 -196.8
L270.4 -196.442
L266.793 -194.347
L265.682 -193.309
L266.123 -189.818
L266.347 -186.327
L265.824 -182.836
L265.487 -179.345
L265.411 -175.855
L265.722 -172.364
L266.661 -168.873
L266.793 -168.599
L268.821 -165.382
L270.4 -164.011
L274.007 -161.923
L274.083 -161.891
L276.347 -161.207" id="C4_3_b569f4a781"/>
     <path d="
M292.044 -223.278
L295.651 -222.193
L299.258 -222.683
L302.865 -224.078
L303.857 -224.727
L306.473 -227.765
L306.83 -228.218
L306.877 -231.709
L306.473 -232.443
L304.604 -235.2
L302.865 -236.756
L299.258 -237.749
L295.651 -237.364
L292.044 -236.518
L289.455 -235.2
L288.436 -233.908
L287.662 -231.709
L288.023 -228.218
L288.436 -227.382
L289.956 -224.727
L292.044 -223.278" id="C4_4_5e975bb157"/>
    </defs>
    <g clip-path="url(#pbb64507b19)">
     <use style="fill:none;stroke:#29ffce;" x="0.0" xlink:href="#C4_0_4c6c962102" y="432.0"/>
    </g>
    <g clip-path="url(#pbb64507b19)">
     <use style="fill:none;stroke:#29ffce;" x="0.0" xlink:href="#C4_1_c30f10a0b1" y="432.0"/>
    </g>
    <g clip-path="url(#pbb64507b19)">
     <use style="fill:none;stroke:#29ffce;" x="0.0" xlink:href="#C4_2_308874ab0e" y="432.0"/>
    </g>
    <g clip-path="url(#pbb64507b19)">
     <use style="fill:none;stroke:#29ffce;" x="0.0" xlink:href="#C4_3_b569f4a781" y="432.0"/>
    </g>
    <g clip-path="url(#pbb64507b19)">
     <use style="fill:none;stroke:#29ffce;" x="0.0" xlink:href="#C4_4_5e975bb157" y="432.0"/>
    </g>
   </g>
   <g id="LineCollection_6">
    <defs>
     <path d="
M279.957 -195.725
L277.615 -195.361
L274.007 -194.209
L272.237 -193.309
L271.465 -189.818
L273.589 -186.327
L274.007 -185.704
L276.015 -182.836
L277.615 -180.763
L278.771 -179.345
L281.222 -176.583
L281.916 -175.855
L284.829 -173.014
L285.559 -172.364
L288.436 -169.961
L289.898 -168.873
L292.044 -167.363
L295.305 -165.382
L295.651 -165.182
L299.258 -162.868
L302.619 -161.891
L302.865 -161.806
L303.02 -161.891
L306.473 -163.822
L308.525 -165.382
L310.08 -167.541
L310.712 -168.873
L311.426 -172.364
L311.999 -175.855
L312.39 -179.345
L312.532 -182.521" id="C5_0_4c36578fdb"/>
    </defs>
    <g clip-path="url(#pbb64507b19)">
     <use style="fill:none;stroke:#7aff7d;" x="0.0" xlink:href="#C5_0_4c36578fdb" y="432.0"/>
    </g>
   </g>
   <g id="LineCollection_7">
    <defs>
     <path d="
M302.865 -164.815
L303.753 -165.382
L306.473 -167.362
L307.754 -168.873
L308.896 -172.364
L309.204 -175.855
L309.241 -179.345
L309.009 -182.836
L308.081 -186.327
L306.473 -188.308
L305.135 -189.818
L302.865 -190.942
L299.258 -192.733
L297.937 -193.309
L295.651 -193.974
L292.044 -194.311
L288.436 -194.491
L284.829 -194.376
L281.222 -193.879
L279.046 -193.309
L277.615 -191.982
L276.188 -189.818
L277.615 -186.508
L277.68 -186.327
L280.398 -182.836
L281.222 -181.903
L283.483 -179.345
L284.829 -177.974
L286.928 -175.855
L288.436 -174.465
L290.758 -172.364
L292.044 -171.292
L295.071 -168.873
L295.651 -168.436
L299.258 -165.863
L301.034 -165.382
L302.865 -164.815" id="C6_0_a97ec51d89"/>
    </defs>
    <g clip-path="url(#pbb64507b19)">
     <use style="fill:none;stroke:#ceff29;" x="0.0" xlink:href="#C6_0_a97ec51d89" y="432.0"/>
    </g>
   </g>
   <g id="LineCollection_8">
    <defs>
     <path d="
M299.258 -168.488
L302.865 -167.772
L304.312 -168.873
L306.473 -171.434
L306.88 -172.364
L307.152 -175.855
L306.776 -179.345
L306.473 -180.76
L306.112 -182.836
L304.73 -186.327
L302.865 -188.322
L301.476 -189.818
L299.258 -191.082
L295.651 -192.616
L292.044 -192.829
L288.436 -192.771
L284.829 -191.965
L281.222 -189.819
L281.221 -189.818
L281.222 -189.815
L281.726 -186.327
L284.126 -182.836
L284.829 -182.051
L287.168 -179.345
L288.436 -178.071
L290.6 -175.855
L292.044 -174.536
L294.431 -172.364
L295.651 -171.358
L298.735 -168.873
L299.258 -168.488" id="C7_0_5e93b02cde"/>
    </defs>
    <g clip-path="url(#pbb64507b19)">
     <use style="fill:none;stroke:#ffc400;" x="0.0" xlink:href="#C7_0_5e93b02cde" y="432.0"/>
    </g>
   </g>
   <g id="LineCollection_9">
    <defs>
     <path d="
M299.258 -171.093
L302.865 -171.007
L304.067 -172.364
L305.1 -175.855
L304.978 -179.345
L304.112 -182.836
L302.865 -185.048
L302.16 -186.327
L299.258 -189.342
L298.246 -189.818
L295.651 -190.87
L292.044 -190.591
L288.436 -189.983
L287.971 -189.818
L286.355 -186.327
L288.054 -182.836
L288.436 -182.383
L290.771 -179.345
L292.044 -178.038
L294.015 -175.855
L295.651 -174.363
L297.712 -172.364
L299.258 -171.093" id="C8_0_16dd20752c"/>
    </defs>
    <g clip-path="url(#pbb64507b19)">
     <use style="fill:none;stroke:#ff6800;" x="0.0" xlink:href="#C8_0_16dd20752c" y="432.0"/>
    </g>
   </g>
   <g id="LineCollection_10">
    <defs>
     <path d="
M299.258 -173.938
L302.865 -175.409
L303.046 -175.855
L303.274 -179.345
L302.865 -180.703
L302.052 -182.836
L300.205 -186.327
L299.258 -187.311
L295.651 -188.434
L292.045 -186.327
L292.296 -182.836
L294.356 -179.345
L295.651 -177.899
L297.282 -175.855
L299.258 -173.938" id="C9_0_b78c0f499a"/>
    </defs>
    <g clip-path="url(#pbb64507b19)">
     <use style="fill:none;stroke:#f10800;" x="0.0" xlink:href="#C9_0_b78c0f499a" y="432.0"/>
    </g>
   </g>
   <g id="LineCollection_11">
    <defs>
     <path d="
M299.258 -177.844
L300.241 -179.345
L299.891 -182.836
L299.258 -184.101
L297.122 -182.836
L298.143 -179.345
L299.258 -177.844" id="Ca_0_399486a00c"/>
    </defs>
    <g clip-path="url(#pbb64507b19)">
     <use style="fill:none;stroke:#800000;" x="0.0" xlink:href="#Ca_0_399486a00c" y="432.0"/>
    </g>
   </g>
   <g id="matplotlib.axis_1">
    <g id="xtick_1">
     <g id="text_1">
      <!-- 0.0 -->
      <defs>
       <path d="
M31.7812 66.4062
Q24.1719 66.4062 20.3281 58.9062
Q16.5 51.4219 16.5 36.375
Q16.5 21.3906 20.3281 13.8906
Q24.1719 6.39062 31.7812 6.39062
Q39.4531 6.39062 43.2812 13.8906
Q47.125 21.3906 47.125 36.375
Q47.125 51.4219 43.2812 58.9062
Q39.4531 66.4062 31.7812 66.4062
M31.7812 74.2188
Q44.0469 74.2188 50.5156 64.5156
Q56.9844 54.8281 56.9844 36.375
Q56.9844 17.9688 50.5156 8.26562
Q44.0469 -1.42188 31.7812 -1.42188
Q19.5312 -1.42188 13.0625 8.26562
Q6.59375 17.9688 6.59375 36.375
Q6.59375 54.8281 13.0625 64.5156
Q19.5312 74.2188 31.7812 74.2188" id="BitstreamVeraSans-Roman-30"/>
       <path d="
M10.6875 12.4062
L21 12.4062
L21 0
L10.6875 0
z
" id="BitstreamVeraSans-Roman-2e"/>
      </defs>
      <g transform="translate(63.1900769154 401.918125)scale(0.12 -0.12)">
       <use xlink:href="#BitstreamVeraSans-Roman-30"/>
       <use x="63.623046875" xlink:href="#BitstreamVeraSans-Roman-2e"/>
       <use x="95.41015625" xlink:href="#BitstreamVeraSans-Roman-30"/>
      </g>
     </g>
    </g>
    <g id="xtick_2">
     <g id="line2d_1">
      <defs>
       <path d="
M0 0
L0 -4" id="m93b0483c22" style="stroke:#000000;stroke-width:0.5;"/>
      </defs>
      <g>
       <use style="stroke:#000000;stroke-width:0.5;" x="138.323558436" xlink:href="#m93b0483c22" y="388.8"/>
      </g>
     </g>
     <g id="line2d_2">
      <defs>
       <path d="
M0 0
L0 4" id="m741efc42ff" style="stroke:#000000;stroke-width:0.5;"/>
      </defs>
      <g>
       <use style="stroke:#000000;stroke-width:0.5;" x="138.323558436" xlink:href="#m741efc42ff" y="43.2"/>
      </g>
     </g>
     <g id="text_2">
      <!-- 0.2 -->
      <defs>
       <path d="
M19.1875 8.29688
L53.6094 8.29688
L53.6094 0
L7.32812 0
L7.32812 8.29688
Q12.9375 14.1094 22.625 23.8906
Q32.3281 33.6875 34.8125 36.5312
Q39.5469 41.8438 41.4219 45.5312
Q43.3125 49.2188 43.3125 52.7812
Q43.3125 58.5938 39.2344 62.25
Q35.1562 65.9219 28.6094 65.9219
Q23.9688 65.9219 18.8125 64.3125
Q13.6719 62.7031 7.8125 59.4219
L7.8125 69.3906
Q13.7656 71.7812 18.9375 73
Q24.125 74.2188 28.4219 74.2188
Q39.75 74.2188 46.4844 68.5469
Q53.2188 62.8906 53.2188 53.4219
Q53.2188 48.9219 51.5312 44.8906
Q49.8594 40.875 45.4062 35.4062
Q44.1875 33.9844 37.6406 27.2188
Q31.1094 20.4531 19.1875 8.29688" id="BitstreamVeraSans-Roman-32"/>
      </defs>
      <g transform="translate(129.778245936 401.918125)scale(0.12 -0.12)">
       <use xlink:href="#BitstreamVeraSans-Roman-30"/>
       <use x="63.623046875" xlink:href="#BitstreamVeraSans-Roman-2e"/>
       <use x="95.41015625" xlink:href="#BitstreamVeraSans-Roman-32"/>
      </g>
     </g>
    </g>
    <g id="xtick_3">
     <g id="line2d_3">
      <g>
       <use style="stroke:#000000;stroke-width:0.5;" x="204.709227457" xlink:href="#m93b0483c22" y="388.8"/>
      </g>
     </g>
     <g id="line2d_4">
      <g>
       <use style="stroke:#000000;stroke-width:0.5;" x="204.709227457" xlink:href="#m741efc42ff" y="43.2"/>
      </g>
     </g>
     <g id="text_3">
      <!-- 0.4 -->
      <defs>
       <path d="
M37.7969 64.3125
L12.8906 25.3906
L37.7969 25.3906
z

M35.2031 72.9062
L47.6094 72.9062
L47.6094 25.3906
L58.0156 25.3906
L58.0156 17.1875
L47.6094 17.1875
L47.6094 0
L37.7969 0
L37.7969 17.1875
L4.89062 17.1875
L4.89062 26.7031
z
" id="BitstreamVeraSans-Roman-34"/>
      </defs>
      <g transform="translate(195.899539957 401.918125)scale(0.12 -0.12)">
       <use xlink:href="#BitstreamVeraSans-Roman-30"/>
       <use x="63.623046875" xlink:href="#BitstreamVeraSans-Roman-2e"/>
       <use x="95.41015625" xlink:href="#BitstreamVeraSans-Roman-34"/>
      </g>
     </g>
    </g>
    <g id="xtick_4">
     <g id="line2d_5">
      <g>
       <use style="stroke:#000000;stroke-width:0.5;" x="271.094896478" xlink:href="#m93b0483c22" y="388.8"/>
      </g>
     </g>
     <g id="line2d_6">
      <g>
       <use style="stroke:#000000;stroke-width:0.5;" x="271.094896478" xlink:href="#m741efc42ff" y="43.2"/>
      </g>
     </g>
     <g id="text_4">
      <!-- 0.6 -->
      <defs>
       <path d="
M33.0156 40.375
Q26.375 40.375 22.4844 35.8281
Q18.6094 31.2969 18.6094 23.3906
Q18.6094 15.5312 22.4844 10.9531
Q26.375 6.39062 33.0156 6.39062
Q39.6562 6.39062 43.5312 10.9531
Q47.4062 15.5312 47.4062 23.3906
Q47.4062 31.2969 43.5312 35.8281
Q39.6562 40.375 33.0156 40.375
M52.5938 71.2969
L52.5938 62.3125
Q48.875 64.0625 45.0938 64.9844
Q41.3125 65.9219 37.5938 65.9219
Q27.8281 65.9219 22.6719 59.3281
Q17.5312 52.7344 16.7969 39.4062
Q19.6719 43.6562 24.0156 45.9219
Q28.375 48.1875 33.5938 48.1875
Q44.5781 48.1875 50.9531 41.5156
Q57.3281 34.8594 57.3281 23.3906
Q57.3281 12.1562 50.6875 5.35938
Q44.0469 -1.42188 33.0156 -1.42188
Q20.3594 -1.42188 13.6719 8.26562
Q6.98438 17.9688 6.98438 36.375
Q6.98438 53.6562 15.1875 63.9375
Q23.3906 74.2188 37.2031 74.2188
Q40.9219 74.2188 44.7031 73.4844
Q48.4844 72.75 52.5938 71.2969" id="BitstreamVeraSans-Roman-36"/>
      </defs>
      <g transform="translate(262.326458978 401.918125)scale(0.12 -0.12)">
       <use xlink:href="#BitstreamVeraSans-Roman-30"/>
       <use x="63.623046875" xlink:href="#BitstreamVeraSans-Roman-2e"/>
       <use x="95.41015625" xlink:href="#BitstreamVeraSans-Roman-36"/>
      </g>
     </g>
    </g>
    <g id="xtick_5">
     <g id="line2d_7">
      <g>
       <use style="stroke:#000000;stroke-width:0.5;" x="337.480565499" xlink:href="#m93b0483c22" y="388.8"/>
      </g>
     </g>
     <g id="line2d_8">
      <g>
       <use style="stroke:#000000;stroke-width:0.5;" x="337.480565499" xlink:href="#m741efc42ff" y="43.2"/>
      </g>
     </g>
     <g id="text_5">
      <!-- 0.8 -->
      <defs>
       <path d="
M31.7812 34.625
Q24.75 34.625 20.7188 30.8594
Q16.7031 27.0938 16.7031 20.5156
Q16.7031 13.9219 20.7188 10.1562
Q24.75 6.39062 31.7812 6.39062
Q38.8125 6.39062 42.8594 10.1719
Q46.9219 13.9688 46.9219 20.5156
Q46.9219 27.0938 42.8906 30.8594
Q38.875 34.625 31.7812 34.625
M21.9219 38.8125
Q15.5781 40.375 12.0312 44.7188
Q8.5 49.0781 8.5 55.3281
Q8.5 64.0625 14.7188 69.1406
Q20.9531 74.2188 31.7812 74.2188
Q42.6719 74.2188 48.875 69.1406
Q55.0781 64.0625 55.0781 55.3281
Q55.0781 49.0781 51.5312 44.7188
Q48 40.375 41.7031 38.8125
Q48.8281 37.1562 52.7969 32.3125
Q56.7812 27.4844 56.7812 20.5156
Q56.7812 9.90625 50.3125 4.23438
Q43.8438 -1.42188 31.7812 -1.42188
Q19.7344 -1.42188 13.25 4.23438
Q6.78125 9.90625 6.78125 20.5156
Q6.78125 27.4844 10.7812 32.3125
Q14.7969 37.1562 21.9219 38.8125
M18.3125 54.3906
Q18.3125 48.7344 21.8438 45.5625
Q25.3906 42.3906 31.7812 42.3906
Q38.1406 42.3906 41.7188 45.5625
Q45.3125 48.7344 45.3125 54.3906
Q45.3125 60.0625 41.7188 63.2344
Q38.1406 66.4062 31.7812 66.4062
Q25.3906 66.4062 21.8438 63.2344
Q18.3125 60.0625 18.3125 54.3906" id="BitstreamVeraSans-Roman-38"/>
      </defs>
      <g transform="translate(328.744940499 401.918125)scale(0.12 -0.12)">
       <use xlink:href="#BitstreamVeraSans-Roman-30"/>
       <use x="63.623046875" xlink:href="#BitstreamVeraSans-Roman-2e"/>
       <use x="95.41015625" xlink:href="#BitstreamVeraSans-Roman-38"/>
      </g>
     </g>
    </g>
    <g id="xtick_6">
     <g id="line2d_9">
      <g>
       <use style="stroke:#000000;stroke-width:0.5;" x="403.86623452" xlink:href="#m93b0483c22" y="388.8"/>
      </g>
     </g>
     <g id="line2d_10">
      <g>
       <use style="stroke:#000000;stroke-width:0.5;" x="403.86623452" xlink:href="#m741efc42ff" y="43.2"/>
      </g>
     </g>
     <g id="text_6">
      <!-- 1.0 -->
      <defs>
       <path d="
M12.4062 8.29688
L28.5156 8.29688
L28.5156 63.9219
L10.9844 60.4062
L10.9844 69.3906
L28.4219 72.9062
L38.2812 72.9062
L38.2812 8.29688
L54.3906 8.29688
L54.3906 0
L12.4062 0
z
" id="BitstreamVeraSans-Roman-31"/>
      </defs>
      <g transform="translate(395.38185952 401.918125)scale(0.12 -0.12)">
       <use xlink:href="#BitstreamVeraSans-Roman-31"/>
       <use x="63.623046875" xlink:href="#BitstreamVeraSans-Roman-2e"/>
       <use x="95.41015625" xlink:href="#BitstreamVeraSans-Roman-30"/>
      </g>
     </g>
    </g>
   </g>
   <g id="matplotlib.axis_2">
    <g id="ytick_1">
     <g id="line2d_11">
      <defs>
       <path d="
M0 0
L4 0" id="m728421d6d4" style="stroke:#000000;stroke-width:0.5;"/>
      </defs>
      <g>
       <use style="stroke:#000000;stroke-width:0.5;" x="72.0" xlink:href="#m728421d6d4" y="326.778688325"/>
      </g>
     </g>
     <g id="line2d_12">
      <defs>
       <path d="
M0 0
L-4 0" id="mcb0005524f" style="stroke:#000000;stroke-width:0.5;"/>
      </defs>
      <g>
       <use style="stroke:#000000;stroke-width:0.5;" x="429.12" xlink:href="#mcb0005524f" y="326.778688325"/>
      </g>
     </g>
     <g id="text_7">
      <!-- 0.2 -->
      <g transform="translate(50.909375 330.089938325)scale(0.12 -0.12)">
       <use xlink:href="#BitstreamVeraSans-Roman-30"/>
       <use x="63.623046875" xlink:href="#BitstreamVeraSans-Roman-2e"/>
       <use x="95.41015625" xlink:href="#BitstreamVeraSans-Roman-32"/>
      </g>
     </g>
    </g>
    <g id="ytick_2">
     <g id="line2d_13">
      <g>
       <use style="stroke:#000000;stroke-width:0.5;" x="72.0" xlink:href="#m728421d6d4" y="263.715266731"/>
      </g>
     </g>
     <g id="line2d_14">
      <g>
       <use style="stroke:#000000;stroke-width:0.5;" x="429.12" xlink:href="#mcb0005524f" y="263.715266731"/>
      </g>
     </g>
     <g id="text_8">
      <!-- 0.4 -->
      <g transform="translate(50.380625 267.026516731)scale(0.12 -0.12)">
       <use xlink:href="#BitstreamVeraSans-Roman-30"/>
       <use x="63.623046875" xlink:href="#BitstreamVeraSans-Roman-2e"/>
       <use x="95.41015625" xlink:href="#BitstreamVeraSans-Roman-34"/>
      </g>
     </g>
    </g>
    <g id="ytick_3">
     <g id="line2d_15">
      <g>
       <use style="stroke:#000000;stroke-width:0.5;" x="72.0" xlink:href="#m728421d6d4" y="200.651845137"/>
      </g>
     </g>
     <g id="line2d_16">
      <g>
       <use style="stroke:#000000;stroke-width:0.5;" x="429.12" xlink:href="#mcb0005524f" y="200.651845137"/>
      </g>
     </g>
     <g id="text_9">
      <!-- 0.6 -->
      <g transform="translate(50.463125 203.963095137)scale(0.12 -0.12)">
       <use xlink:href="#BitstreamVeraSans-Roman-30"/>
       <use x="63.623046875" xlink:href="#BitstreamVeraSans-Roman-2e"/>
       <use x="95.41015625" xlink:href="#BitstreamVeraSans-Roman-36"/>
      </g>
     </g>
    </g>
    <g id="ytick_4">
     <g id="line2d_17">
      <g>
       <use style="stroke:#000000;stroke-width:0.5;" x="72.0" xlink:href="#m728421d6d4" y="137.588423543"/>
      </g>
     </g>
     <g id="line2d_18">
      <g>
       <use style="stroke:#000000;stroke-width:0.5;" x="429.12" xlink:href="#mcb0005524f" y="137.588423543"/>
      </g>
     </g>
     <g id="text_10">
      <!-- 0.8 -->
      <g transform="translate(50.52875 140.899673543)scale(0.12 -0.12)">
       <use xlink:href="#BitstreamVeraSans-Roman-30"/>
       <use x="63.623046875" xlink:href="#BitstreamVeraSans-Roman-2e"/>
       <use x="95.41015625" xlink:href="#BitstreamVeraSans-Roman-38"/>
      </g>
     </g>
    </g>
    <g id="ytick_5">
     <g id="line2d_19">
      <g>
       <use style="stroke:#000000;stroke-width:0.5;" x="72.0" xlink:href="#m728421d6d4" y="74.525001949"/>
      </g>
     </g>
     <g id="line2d_20">
      <g>
       <use style="stroke:#000000;stroke-width:0.5;" x="429.12" xlink:href="#mcb0005524f" y="74.525001949"/>
      </g>
     </g>
     <g id="text_11">
      <!-- 1.0 -->
      <g transform="translate(51.03125 77.836251949)scale(0.12 -0.12)">
       <use xlink:href="#BitstreamVeraSans-Roman-31"/>
       <use x="63.623046875" xlink:href="#BitstreamVeraSans-Roman-2e"/>
       <use x="95.41015625" xlink:href="#BitstreamVeraSans-Roman-30"/>
      </g>
     </g>
    </g>
   </g>
   <g id="patch_3">
    <path d="
M72 43.2
L429.12 43.2" style="fill:none;stroke:#000000;"/>
   </g>
   <g id="patch_4">
    <path d="
M429.12 388.8
L429.12 43.2" style="fill:none;stroke:#000000;"/>
   </g>
   <g id="patch_5">
    <path d="
M72 388.8
L429.12 388.8" style="fill:none;stroke:#000000;"/>
   </g>
   <g id="patch_6">
    <path d="
M72 388.8
L72 43.2" style="fill:none;stroke:#000000;"/>
   </g>
   <g id="text_12">
    <g clip-path="url(#pbb64507b19)">
     <!-- 0.150 -->
     <defs>
      <path d="
M10.7969 72.9062
L49.5156 72.9062
L49.5156 64.5938
L19.8281 64.5938
L19.8281 46.7344
Q21.9688 47.4688 24.1094 47.8281
Q26.2656 48.1875 28.4219 48.1875
Q40.625 48.1875 47.75 41.5
Q54.8906 34.8125 54.8906 23.3906
Q54.8906 11.625 47.5625 5.09375
Q40.2344 -1.42188 26.9062 -1.42188
Q22.3125 -1.42188 17.5469 -0.640625
Q12.7969 0.140625 7.71875 1.70312
L7.71875 11.625
Q12.1094 9.23438 16.7969 8.0625
Q21.4844 6.89062 26.7031 6.89062
Q35.1562 6.89062 40.0781 11.3281
Q45.0156 15.7656 45.0156 23.3906
Q45.0156 31 40.0781 35.4375
Q35.1562 39.8906 26.7031 39.8906
Q22.75 39.8906 18.8125 39.0156
Q14.8906 38.1406 10.7969 36.2812
z
" id="BitstreamVeraSans-Roman-35"/>
     </defs>
     <g style="fill:#004cff;" transform="translate(137.79017265 262.894324061)rotate(-88.2391201163)scale(0.1 -0.1)">
      <use xlink:href="#BitstreamVeraSans-Roman-30"/>
      <use x="63.623046875" xlink:href="#BitstreamVeraSans-Roman-2e"/>
      <use x="95.41015625" xlink:href="#BitstreamVeraSans-Roman-31"/>
      <use x="159.033203125" xlink:href="#BitstreamVeraSans-Roman-35"/>
      <use x="222.65625" xlink:href="#BitstreamVeraSans-Roman-30"/>
     </g>
    </g>
   </g>
   <g id="text_13">
    <g clip-path="url(#pbb64507b19)">
     <!-- 0.150 -->
     <g style="fill:#004cff;" transform="translate(289.107047313 217.707379138)rotate(-339.612412492)scale(0.1 -0.1)">
      <use xlink:href="#BitstreamVeraSans-Roman-30"/>
      <use x="63.623046875" xlink:href="#BitstreamVeraSans-Roman-2e"/>
      <use x="95.41015625" xlink:href="#BitstreamVeraSans-Roman-31"/>
      <use x="159.033203125" xlink:href="#BitstreamVeraSans-Roman-35"/>
      <use x="222.65625" xlink:href="#BitstreamVeraSans-Roman-30"/>
     </g>
    </g>
   </g>
   <g id="text_14">
    <g clip-path="url(#pbb64507b19)">
     <!-- 0.300 -->
     <defs>
      <path d="
M40.5781 39.3125
Q47.6562 37.7969 51.625 33
Q55.6094 28.2188 55.6094 21.1875
Q55.6094 10.4062 48.1875 4.48438
Q40.7656 -1.42188 27.0938 -1.42188
Q22.5156 -1.42188 17.6562 -0.515625
Q12.7969 0.390625 7.625 2.20312
L7.625 11.7188
Q11.7188 9.32812 16.5938 8.10938
Q21.4844 6.89062 26.8125 6.89062
Q36.0781 6.89062 40.9375 10.5469
Q45.7969 14.2031 45.7969 21.1875
Q45.7969 27.6406 41.2812 31.2656
Q36.7656 34.9062 28.7188 34.9062
L20.2188 34.9062
L20.2188 43.0156
L29.1094 43.0156
Q36.375 43.0156 40.2344 45.9219
Q44.0938 48.8281 44.0938 54.2969
Q44.0938 59.9062 40.1094 62.9062
Q36.1406 65.9219 28.7188 65.9219
Q24.6562 65.9219 20.0156 65.0312
Q15.375 64.1562 9.8125 62.3125
L9.8125 71.0938
Q15.4375 72.6562 20.3438 73.4375
Q25.25 74.2188 29.5938 74.2188
Q40.8281 74.2188 47.3594 69.1094
Q53.9062 64.0156 53.9062 55.3281
Q53.9062 49.2656 50.4375 45.0938
Q46.9688 40.9219 40.5781 39.3125" id="BitstreamVeraSans-Roman-33"/>
     </defs>
     <g style="fill:#00b0ff;" transform="translate(193.568631375 311.88521089)rotate(-84.7005278931)scale(0.1 -0.1)">
      <use xlink:href="#BitstreamVeraSans-Roman-30"/>
      <use x="63.623046875" xlink:href="#BitstreamVeraSans-Roman-2e"/>
      <use x="95.41015625" xlink:href="#BitstreamVeraSans-Roman-33"/>
      <use x="159.033203125" xlink:href="#BitstreamVeraSans-Roman-30"/>
      <use x="222.65625" xlink:href="#BitstreamVeraSans-Roman-30"/>
     </g>
    </g>
   </g>
   <g id="text_15">
    <g clip-path="url(#pbb64507b19)">
     <!-- 0.300 -->
     <g style="fill:#00b0ff;" transform="translate(270.908601703 231.998940566)rotate(-346.640937588)scale(0.1 -0.1)">
      <use xlink:href="#BitstreamVeraSans-Roman-30"/>
      <use x="63.623046875" xlink:href="#BitstreamVeraSans-Roman-2e"/>
      <use x="95.41015625" xlink:href="#BitstreamVeraSans-Roman-33"/>
      <use x="159.033203125" xlink:href="#BitstreamVeraSans-Roman-30"/>
      <use x="222.65625" xlink:href="#BitstreamVeraSans-Roman-30"/>
     </g>
    </g>
   </g>
   <g id="text_16">
    <g clip-path="url(#pbb64507b19)">
     <!-- 0.450 -->
     <g style="fill:#29ffce;" transform="translate(290.779920728 363.362624861)rotate(-57.111508138)scale(0.1 -0.1)">
      <use xlink:href="#BitstreamVeraSans-Roman-30"/>
      <use x="63.623046875" xlink:href="#BitstreamVeraSans-Roman-2e"/>
      <use x="95.41015625" xlink:href="#BitstreamVeraSans-Roman-34"/>
      <use x="159.033203125" xlink:href="#BitstreamVeraSans-Roman-35"/>
      <use x="222.65625" xlink:href="#BitstreamVeraSans-Roman-30"/>
     </g>
    </g>
   </g>
   <g id="text_17">
    <g clip-path="url(#pbb64507b19)">
     <!-- 0.450 -->
     <g style="fill:#29ffce;" transform="translate(242.160329415 304.573090058)rotate(-356.031501863)scale(0.1 -0.1)">
      <use xlink:href="#BitstreamVeraSans-Roman-30"/>
      <use x="63.623046875" xlink:href="#BitstreamVeraSans-Roman-2e"/>
      <use x="95.41015625" xlink:href="#BitstreamVeraSans-Roman-34"/>
      <use x="159.033203125" xlink:href="#BitstreamVeraSans-Roman-35"/>
      <use x="222.65625" xlink:href="#BitstreamVeraSans-Roman-30"/>
     </g>
    </g>
   </g>
   <g id="text_18">
    <g clip-path="url(#pbb64507b19)">
     <!-- 0.450 -->
     <g style="fill:#29ffce;" transform="translate(282.157449649 276.632598645)rotate(-2.92982044855)scale(0.1 -0.1)">
      <use xlink:href="#BitstreamVeraSans-Roman-30"/>
      <use x="63.623046875" xlink:href="#BitstreamVeraSans-Roman-2e"/>
      <use x="95.41015625" xlink:href="#BitstreamVeraSans-Roman-34"/>
      <use x="159.033203125" xlink:href="#BitstreamVeraSans-Roman-35"/>
      <use x="222.65625" xlink:href="#BitstreamVeraSans-Roman-30"/>
     </g>
    </g>
   </g>
   <g id="text_19">
    <g clip-path="url(#pbb64507b19)">
     <!-- 0.600 -->
     <g style="fill:#7aff7d;" transform="translate(285.436407324 236.15552421)rotate(-341.479033373)scale(0.1 -0.1)">
      <use xlink:href="#BitstreamVeraSans-Roman-30"/>
      <use x="63.623046875" xlink:href="#BitstreamVeraSans-Roman-2e"/>
      <use x="95.41015625" xlink:href="#BitstreamVeraSans-Roman-36"/>
      <use x="159.033203125" xlink:href="#BitstreamVeraSans-Roman-30"/>
      <use x="222.65625" xlink:href="#BitstreamVeraSans-Roman-30"/>
     </g>
    </g>
   </g>
   <g id="text_20">
    <!-- griddata -->
    <defs>
     <path d="
M34.2812 27.4844
Q23.3906 27.4844 19.1875 25
Q14.9844 22.5156 14.9844 16.5
Q14.9844 11.7188 18.1406 8.90625
Q21.2969 6.10938 26.7031 6.10938
Q34.1875 6.10938 38.7031 11.4062
Q43.2188 16.7031 43.2188 25.4844
L43.2188 27.4844
z

M52.2031 31.2031
L52.2031 0
L43.2188 0
L43.2188 8.29688
Q40.1406 3.32812 35.5469 0.953125
Q30.9531 -1.42188 24.3125 -1.42188
Q15.9219 -1.42188 10.9531 3.29688
Q6 8.01562 6 15.9219
Q6 25.1406 12.1719 29.8281
Q18.3594 34.5156 30.6094 34.5156
L43.2188 34.5156
L43.2188 35.4062
Q43.2188 41.6094 39.1406 45
Q35.0625 48.3906 27.6875 48.3906
Q23 48.3906 18.5469 47.2656
Q14.1094 46.1406 10.0156 43.8906
L10.0156 52.2031
Q14.9375 54.1094 19.5781 55.0469
Q24.2188 56 28.6094 56
Q40.4844 56 46.3438 49.8438
Q52.2031 43.7031 52.2031 31.2031" id="BitstreamVeraSans-Roman-61"/>
     <path d="
M9.42188 54.6875
L18.4062 54.6875
L18.4062 0
L9.42188 0
z

M9.42188 75.9844
L18.4062 75.9844
L18.4062 64.5938
L9.42188 64.5938
z
" id="BitstreamVeraSans-Roman-69"/>
     <path d="
M45.4062 46.3906
L45.4062 75.9844
L54.3906 75.9844
L54.3906 0
L45.4062 0
L45.4062 8.20312
Q42.5781 3.32812 38.25 0.953125
Q33.9375 -1.42188 27.875 -1.42188
Q17.9688 -1.42188 11.7344 6.48438
Q5.51562 14.4062 5.51562 27.2969
Q5.51562 40.1875 11.7344 48.0938
Q17.9688 56 27.875 56
Q33.9375 56 38.25 53.625
Q42.5781 51.2656 45.4062 46.3906
M14.7969 27.2969
Q14.7969 17.3906 18.875 11.75
Q22.9531 6.10938 30.0781 6.10938
Q37.2031 6.10938 41.2969 11.75
Q45.4062 17.3906 45.4062 27.2969
Q45.4062 37.2031 41.2969 42.8438
Q37.2031 48.4844 30.0781 48.4844
Q22.9531 48.4844 18.875 42.8438
Q14.7969 37.2031 14.7969 27.2969" id="BitstreamVeraSans-Roman-64"/>
     <path d="
M18.3125 70.2188
L18.3125 54.6875
L36.8125 54.6875
L36.8125 47.7031
L18.3125 47.7031
L18.3125 18.0156
Q18.3125 11.3281 20.1406 9.42188
Q21.9688 7.51562 27.5938 7.51562
L36.8125 7.51562
L36.8125 0
L27.5938 0
Q17.1875 0 13.2344 3.875
Q9.28125 7.76562 9.28125 18.0156
L9.28125 47.7031
L2.6875 47.7031
L2.6875 54.6875
L9.28125 54.6875
L9.28125 70.2188
z
" id="BitstreamVeraSans-Roman-74"/>
     <path d="
M41.1094 46.2969
Q39.5938 47.1719 37.8125 47.5781
Q36.0312 48 33.8906 48
Q26.2656 48 22.1875 43.0469
Q18.1094 38.0938 18.1094 28.8125
L18.1094 0
L9.07812 0
L9.07812 54.6875
L18.1094 54.6875
L18.1094 46.1875
Q20.9531 51.1719 25.4844 53.5781
Q30.0312 56 36.5312 56
Q37.4531 56 38.5781 55.875
Q39.7031 55.7656 41.0625 55.5156
z
" id="BitstreamVeraSans-Roman-72"/>
     <path d="
M45.4062 27.9844
Q45.4062 37.75 41.375 43.1094
Q37.3594 48.4844 30.0781 48.4844
Q22.8594 48.4844 18.8281 43.1094
Q14.7969 37.75 14.7969 27.9844
Q14.7969 18.2656 18.8281 12.8906
Q22.8594 7.51562 30.0781 7.51562
Q37.3594 7.51562 41.375 12.8906
Q45.4062 18.2656 45.4062 27.9844
M54.3906 6.78125
Q54.3906 -7.17188 48.1875 -13.9844
Q42 -20.7969 29.2031 -20.7969
Q24.4688 -20.7969 20.2656 -20.0938
Q16.0625 -19.3906 12.1094 -17.9219
L12.1094 -9.1875
Q16.0625 -11.3281 19.9219 -12.3438
Q23.7812 -13.375 27.7812 -13.375
Q36.625 -13.375 41.0156 -8.76562
Q45.4062 -4.15625 45.4062 5.17188
L45.4062 9.625
Q42.625 4.78125 38.2812 2.39062
Q33.9375 0 27.875 0
Q17.8281 0 11.6719 7.65625
Q5.51562 15.3281 5.51562 27.9844
Q5.51562 40.6719 11.6719 48.3281
Q17.8281 56 27.875 56
Q33.9375 56 38.2812 53.6094
Q42.625 51.2188 45.4062 46.3906
L45.4062 54.6875
L54.3906 54.6875
z
" id="BitstreamVeraSans-Roman-67"/>
    </defs>
    <g transform="translate(221.290875 38.2)scale(0.144 -0.144)">
     <use xlink:href="#BitstreamVeraSans-Roman-67"/>
     <use x="63.4765625" xlink:href="#BitstreamVeraSans-Roman-72"/>
     <use x="104.58984375" xlink:href="#BitstreamVeraSans-Roman-69"/>
     <use x="132.373046875" xlink:href="#BitstreamVeraSans-Roman-64"/>
     <use x="195.849609375" xlink:href="#BitstreamVeraSans-Roman-64"/>
     <use x="259.326171875" xlink:href="#BitstreamVeraSans-Roman-61"/>
     <use x="320.60546875" xlink:href="#BitstreamVeraSans-Roman-74"/>
     <use x="359.814453125" xlink:href="#BitstreamVeraSans-Roman-61"/>
    </g>
   </g>
  </g>
  <g id="axes_2">
   <g id="patch_7">
    <path clip-path="url(#p8630e4bf2e)" d="
M451.44 388.8
L451.44 354.24
L451.44 77.76
L451.44 43.2
L468.72 43.2
L468.72 77.76
L468.72 354.24
L468.72 388.8
z
" style="fill:#ffffff;stroke:#ffffff;stroke-width:0.01;"/>
   </g>
   <g id="LineCollection_12">
    <defs>
     <path d="
M451.44 -43.2
L468.72 -43.2" id="Cb_0_b0525baebf"/>
     <path d="
M451.44 -77.76
L468.72 -77.76" id="Cb_1_9ec0f30568"/>
     <path d="
M451.44 -112.32
L468.72 -112.32" id="Cb_2_fbdfdf6834"/>
     <path d="
M451.44 -146.88
L468.72 -146.88" id="Cb_3_886f8191f9"/>
     <path d="
M451.44 -181.44
L468.72 -181.44" id="Cb_4_a8c3c2e075"/>
     <path d="
M451.44 -216
L468.72 -216" id="Cb_5_82dcd69699"/>
     <path d="
M451.44 -250.56
L468.72 -250.56" id="Cb_6_0addbfce89"/>
     <path d="
M451.44 -285.12
L468.72 -285.12" id="Cb_7_003d058898"/>
     <path d="
M451.44 -319.68
L468.72 -319.68" id="Cb_8_317f4aff86"/>
     <path d="
M451.44 -354.24
L468.72 -354.24" id="Cb_9_b424cd326c"/>
     <path d="
M451.44 -388.8
L468.72 -388.8" id="Cb_a_160f79e73e"/>
    </defs>
    <g clip-path="url(#p8630e4bf2e)">
     <use style="fill:none;stroke:#000080;" x="0.0" xlink:href="#Cb_0_b0525baebf" y="432.0"/>
    </g>
    <g clip-path="url(#p8630e4bf2e)">
     <use style="fill:none;stroke:#0000f1;" x="0.0" xlink:href="#Cb_1_9ec0f30568" y="432.0"/>
    </g>
    <g clip-path="url(#p8630e4bf2e)">
     <use style="fill:none;stroke:#004cff;" x="0.0" xlink:href="#Cb_2_fbdfdf6834" y="432.0"/>
    </g>
    <g clip-path="url(#p8630e4bf2e)">
     <use style="fill:none;stroke:#00b0ff;" x="0.0" xlink:href="#Cb_3_886f8191f9" y="432.0"/>
    </g>
    <g clip-path="url(#p8630e4bf2e)">
     <use style="fill:none;stroke:#29ffce;" x="0.0" xlink:href="#Cb_4_a8c3c2e075" y="432.0"/>
    </g>
    <g clip-path="url(#p8630e4bf2e)">
     <use style="fill:none;stroke:#7aff7d;" x="0.0" xlink:href="#Cb_5_82dcd69699" y="432.0"/>
    </g>
    <g clip-path="url(#p8630e4bf2e)">
     <use style="fill:none;stroke:#ceff29;" x="0.0" xlink:href="#Cb_6_0addbfce89" y="432.0"/>
    </g>
    <g clip-path="url(#p8630e4bf2e)">
     <use style="fill:none;stroke:#ffc400;" x="0.0" xlink:href="#Cb_7_003d058898" y="432.0"/>
    </g>
    <g clip-path="url(#p8630e4bf2e)">
     <use style="fill:none;stroke:#ff6800;" x="0.0" xlink:href="#Cb_8_317f4aff86" y="432.0"/>
    </g>
    <g clip-path="url(#p8630e4bf2e)">
     <use style="fill:none;stroke:#f10800;" x="0.0" xlink:href="#Cb_9_b424cd326c" y="432.0"/>
    </g>
    <g clip-path="url(#p8630e4bf2e)">
     <use style="fill:none;stroke:#800000;" x="0.0" xlink:href="#Cb_a_160f79e73e" y="432.0"/>
    </g>
   </g>
   <g id="line2d_21">
    <path d="
M451.44 388.8
L451.44 354.24
L451.44 77.76
L451.44 43.2
L468.72 43.2
L468.72 77.76
L468.72 354.24
L468.72 388.8
L451.44 388.8" style="fill:none;stroke:#000000;stroke-linecap:square;"/>
   </g>
   <g id="matplotlib.axis_3"/>
   <g id="matplotlib.axis_4">
    <g id="ytick_6">
     <g id="line2d_22">
      <g>
       <use style="stroke:#000000;stroke-width:0.5;" x="468.72" xlink:href="#mcb0005524f" y="354.24"/>
      </g>
     </g>
     <g id="text_21">
      <!-- 0.0 -->
      <g transform="translate(472.72 357.55125)scale(0.12 -0.12)">
       <use xlink:href="#BitstreamVeraSans-Roman-30"/>
       <use x="63.623046875" xlink:href="#BitstreamVeraSans-Roman-2e"/>
       <use x="95.41015625" xlink:href="#BitstreamVeraSans-Roman-30"/>
      </g>
     </g>
    </g>
    <g id="ytick_7">
     <g id="line2d_23">
      <g>
       <use style="stroke:#000000;stroke-width:0.5;" x="468.72" xlink:href="#mcb0005524f" y="285.12"/>
      </g>
     </g>
     <g id="text_22">
      <!-- 0.3 -->
      <g transform="translate(472.72 288.43125)scale(0.12 -0.12)">
       <use xlink:href="#BitstreamVeraSans-Roman-30"/>
       <use x="63.623046875" xlink:href="#BitstreamVeraSans-Roman-2e"/>
       <use x="95.41015625" xlink:href="#BitstreamVeraSans-Roman-33"/>
      </g>
     </g>
    </g>
    <g id="ytick_8">
     <g id="line2d_24">
      <g>
       <use style="stroke:#000000;stroke-width:0.5;" x="468.72" xlink:href="#mcb0005524f" y="216.0"/>
      </g>
     </g>
     <g id="text_23">
      <!-- 0.6 -->
      <g transform="translate(472.72 219.31125)scale(0.12 -0.12)">
       <use xlink:href="#BitstreamVeraSans-Roman-30"/>
       <use x="63.623046875" xlink:href="#BitstreamVeraSans-Roman-2e"/>
       <use x="95.41015625" xlink:href="#BitstreamVeraSans-Roman-36"/>
      </g>
     </g>
    </g>
    <g id="ytick_9">
     <g id="line2d_25">
      <g>
       <use style="stroke:#000000;stroke-width:0.5;" x="468.72" xlink:href="#mcb0005524f" y="146.88"/>
      </g>
     </g>
     <g id="text_24">
      <!-- 0.9 -->
      <defs>
       <path d="
M10.9844 1.51562
L10.9844 10.5
Q14.7031 8.73438 18.5 7.8125
Q22.3125 6.89062 25.9844 6.89062
Q35.75 6.89062 40.8906 13.4531
Q46.0469 20.0156 46.7812 33.4062
Q43.9531 29.2031 39.5938 26.9531
Q35.25 24.7031 29.9844 24.7031
Q19.0469 24.7031 12.6719 31.3125
Q6.29688 37.9375 6.29688 49.4219
Q6.29688 60.6406 12.9375 67.4219
Q19.5781 74.2188 30.6094 74.2188
Q43.2656 74.2188 49.9219 64.5156
Q56.5938 54.8281 56.5938 36.375
Q56.5938 19.1406 48.4062 8.85938
Q40.2344 -1.42188 26.4219 -1.42188
Q22.7031 -1.42188 18.8906 -0.6875
Q15.0938 0.046875 10.9844 1.51562
M30.6094 32.4219
Q37.25 32.4219 41.125 36.9531
Q45.0156 41.5 45.0156 49.4219
Q45.0156 57.2812 41.125 61.8438
Q37.25 66.4062 30.6094 66.4062
Q23.9688 66.4062 20.0938 61.8438
Q16.2188 57.2812 16.2188 49.4219
Q16.2188 41.5 20.0938 36.9531
Q23.9688 32.4219 30.6094 32.4219" id="BitstreamVeraSans-Roman-39"/>
      </defs>
      <g transform="translate(472.72 150.19125)scale(0.12 -0.12)">
       <use xlink:href="#BitstreamVeraSans-Roman-30"/>
       <use x="63.623046875" xlink:href="#BitstreamVeraSans-Roman-2e"/>
       <use x="95.41015625" xlink:href="#BitstreamVeraSans-Roman-39"/>
      </g>
     </g>
    </g>
    <g id="ytick_10">
     <g id="line2d_26">
      <g>
       <use style="stroke:#000000;stroke-width:0.5;" x="468.72" xlink:href="#mcb0005524f" y="77.76"/>
      </g>
     </g>
     <g id="text_25">
      <!-- 1.2 -->
      <g transform="translate(472.72 81.07125)scale(0.12 -0.12)">
       <use xlink:href="#BitstreamVeraSans-Roman-31"/>
       <use x="63.623046875" xlink:href="#BitstreamVeraSans-Roman-2e"/>
       <use x="95.41015625" xlink:href="#BitstreamVeraSans-Roman-32"/>
      </g>
     </g>
    </g>
   </g>
  </g>
 </g>
 <defs>
  <clipPath id="p8630e4bf2e">
   <rect height="345.6" width="17.28" x="451.44" y="43.2"/>
  </clipPath>
  <clipPath id="pbb64507b19">
   <rect height="345.6" width="357.12" x="72.0" y="43.2"/>
  </clipPath>
 </defs>
</svg>
